{"glyphs":{"0":{"ha":1290,"x_min":0,"x_max":0,"o":"m 645 1003 b 1248 486 1060 1003 1248 819 b 645 -31 1248 153 1060 -31 b 43 486 230 -31 43 153 b 645 1003 43 819 230 1003 m 645 207 b 907 486 836 207 907 307 b 645 765 907 665 836 765 b 383 486 454 765 383 665 b 645 207 383 307 454 207 "},"1":{"ha":724,"x_min":0,"x_max":0,"o":"m 651 0 l 327 0 l 327 571 l 29 571 l 29 785 l 109 785 b 377 972 285 785 347 861 l 651 972 "},"2":{"ha":1201,"x_min":0,"x_max":0,"o":"m 559 307 b 399 229 474 287 416 254 l 1148 229 l 1148 0 l 32 0 l 32 30 b 464 510 32 354 290 455 l 643 567 b 792 688 744 599 792 625 b 607 777 792 752 720 777 b 401 631 494 777 411 737 l 49 631 b 593 1003 66 897 248 1003 b 1150 700 943 1003 1150 935 b 792 365 1150 501 1011 416 l 559 307 "},"3":{"ha":1200,"x_min":0,"x_max":0,"o":"m 975 506 b 1163 279 1096 478 1163 415 b 585 -31 1163 58 1016 -31 b 21 319 173 -31 35 71 l 368 319 b 585 195 376 231 449 195 b 806 294 715 195 806 217 b 630 398 806 372 743 398 l 438 398 l 438 598 l 636 598 b 796 695 736 598 796 625 b 585 786 796 765 709 786 b 384 673 460 786 392 750 l 55 673 b 585 1003 70 910 227 1003 b 1134 713 965 1003 1134 933 b 975 514 1134 598 1081 533 l 975 506 "},"4":{"ha":1176,"x_min":0,"x_max":0,"o":"m 23 191 l 23 429 l 592 972 l 979 972 l 979 403 l 1146 403 l 1146 191 l 979 191 l 979 0 l 667 0 l 667 191 m 667 721 l 658 721 l 333 411 l 333 403 l 667 403 "},"5":{"ha":1200,"x_min":0,"x_max":0,"o":"m 1091 759 l 377 759 l 369 626 l 378 626 b 654 682 429 649 510 682 b 1161 332 1011 682 1161 585 b 596 -31 1161 79 1011 -31 b 39 290 188 -31 51 79 l 392 290 b 596 195 402 230 457 195 b 810 327 741 195 810 231 b 600 459 810 423 741 459 b 405 426 488 459 426 436 l 71 426 l 103 972 l 1091 972 "},"6":{"ha":1224,"x_min":0,"x_max":0,"o":"m 670 632 b 1185 316 1016 632 1185 538 b 633 -31 1185 93 1017 -31 b 43 485 218 -31 43 115 b 627 1003 43 825 215 1003 b 1178 692 1038 1003 1164 838 l 830 692 b 635 790 819 760 744 790 b 377 564 489 790 390 744 l 385 564 b 670 632 450 607 578 632 m 621 425 b 401 306 489 425 401 395 b 621 182 401 215 489 182 b 834 306 753 182 834 215 b 621 425 834 395 753 425 "},"7":{"ha":1138,"x_min":0,"x_max":0,"o":"m 1107 972 l 1107 848 b 1037 648 1107 758 1082 706 b 673 0 897 458 699 306 l 246 0 b 749 715 270 296 542 527 l 749 724 l 18 724 l 18 972 "},"8":{"ha":1247,"x_min":0,"x_max":0,"o":"m 623 1003 b 1183 713 1005 1003 1183 926 b 1016 514 1183 608 1127 544 l 1016 506 b 1204 270 1138 478 1204 415 b 623 -31 1204 56 1032 -31 b 43 270 214 -31 43 56 b 230 506 43 415 109 478 l 230 514 b 64 713 119 544 64 608 b 623 1003 64 926 242 1003 m 623 786 b 401 690 481 786 401 765 b 623 594 401 618 480 594 b 845 690 766 594 845 618 b 623 786 845 765 766 786 m 623 185 b 847 291 769 185 847 208 b 623 398 847 374 765 398 b 400 291 482 398 400 374 b 623 185 400 208 478 185 "},"9":{"ha":1210,"x_min":0,"x_max":0,"o":"m 541 340 b 25 656 194 340 25 435 b 577 1003 25 880 193 1003 b 1168 488 992 1003 1168 857 b 583 -31 1168 147 995 -31 b 32 280 172 -31 46 135 l 380 280 b 576 182 392 213 466 182 b 834 409 722 182 820 228 l 825 409 b 541 340 761 365 632 340 m 589 547 b 809 666 721 547 809 577 b 589 790 809 757 721 790 b 377 666 457 790 377 757 b 589 547 377 577 457 547 "},"A":{"ha":1331,"x_min":0,"x_max":0,"o":"m 919 155 l 413 155 l 345 0 l -5 0 l 456 992 l 878 992 l 1335 0 l 986 0 m 818 386 l 669 725 l 661 725 l 513 386 "},"Á":{"ha":1331,"x_min":0,"x_max":0,"o":"m 810 1080 l 542 1080 l 653 1285 l 1075 1285 m 919 155 l 413 155 l 345 0 l -5 0 l 456 992 l 878 992 l 1335 0 l 986 0 m 818 386 l 669 725 l 661 725 l 513 386 "},"Ă":{"ha":1331,"x_min":0,"x_max":0,"o":"m 668 1063 b 336 1289 512 1063 341 1133 l 581 1289 b 668 1231 587 1246 619 1231 b 754 1289 716 1231 748 1246 l 1000 1289 b 668 1063 996 1133 823 1063 m 919 155 l 413 155 l 345 0 l -5 0 l 456 992 l 878 992 l 1335 0 l 986 0 m 818 386 l 669 725 l 661 725 l 513 386 "},"Â":{"ha":1331,"x_min":0,"x_max":0,"o":"m 586 1080 l 267 1080 l 449 1284 l 886 1284 l 1068 1080 l 749 1080 l 672 1178 l 663 1178 m 919 155 l 413 155 l 345 0 l -5 0 l 456 992 l 878 992 l 1335 0 l 986 0 m 818 386 l 669 725 l 661 725 l 513 386 "},"Ä":{"ha":1331,"x_min":0,"x_max":0,"o":"m 606 1081 l 318 1081 l 318 1253 l 606 1253 m 1017 1081 l 729 1081 l 729 1253 l 1017 1253 m 919 155 l 413 155 l 345 0 l -5 0 l 456 992 l 878 992 l 1335 0 l 986 0 m 818 386 l 669 725 l 661 725 l 513 386 "},"À":{"ha":1331,"x_min":0,"x_max":0,"o":"m 538 1080 l 273 1285 l 694 1285 l 806 1080 m 919 155 l 413 155 l 345 0 l -5 0 l 456 992 l 878 992 l 1335 0 l 986 0 m 818 386 l 669 725 l 661 725 l 513 386 "},"Ā":{"ha":1331,"x_min":0,"x_max":0,"o":"m 1000 1083 l 335 1083 l 335 1253 l 1000 1253 m 919 155 l 413 155 l 345 0 l -5 0 l 456 992 l 878 992 l 1335 0 l 986 0 m 818 386 l 669 725 l 661 725 l 513 386 "},"Ą":{"ha":1331,"x_min":0,"x_max":0,"o":"m 1179 -131 b 1252 -183 1179 -169 1214 -183 b 1335 -172 1292 -183 1316 -176 l 1335 -322 b 1191 -335 1293 -332 1252 -335 b 914 -180 1003 -335 914 -276 b 1089 0 914 -106 990 -36 l 986 0 l 919 155 l 413 155 l 345 0 l -5 0 l 456 992 l 878 992 l 1335 0 b 1179 -131 1237 -31 1179 -88 m 818 386 l 669 725 l 661 725 l 513 386 "},"Å":{"ha":1331,"x_min":0,"x_max":0,"o":"m 669 1030 b 426 1221 534 1030 426 1103 b 669 1412 426 1339 534 1412 b 911 1221 803 1412 911 1339 b 669 1030 911 1103 803 1030 m 669 1287 b 590 1221 626 1287 590 1262 b 669 1155 590 1180 626 1155 b 747 1221 711 1155 747 1180 b 669 1287 747 1262 711 1287 m 919 155 l 413 155 l 345 0 l -5 0 l 456 992 l 878 992 l 1335 0 l 986 0 m 818 386 l 669 725 l 661 725 l 513 386 "},"Ã":{"ha":1331,"x_min":0,"x_max":0,"o":"m 549 1119 b 504 1070 513 1119 506 1105 l 299 1070 b 516 1303 299 1232 418 1303 b 785 1239 609 1303 729 1239 b 830 1288 821 1239 828 1253 l 1035 1288 b 815 1055 1035 1126 913 1055 b 549 1119 723 1055 605 1119 m 919 155 l 413 155 l 345 0 l -5 0 l 456 992 l 878 992 l 1335 0 l 986 0 m 818 386 l 669 725 l 661 725 l 513 386 "},"Æ":{"ha":1950,"x_min":0,"x_max":0,"o":"m 1896 236 l 1896 0 l 965 0 l 965 155 l 486 155 l 381 0 l 0 0 l 704 992 l 1882 992 l 1882 753 l 1271 753 l 1271 614 l 1853 614 l 1853 394 l 1271 394 l 1271 236 m 965 386 l 965 753 l 891 753 l 642 386 "},"B":{"ha":1272,"x_min":0,"x_max":0,"o":"m 1052 532 b 1228 291 1150 508 1228 449 b 879 0 1228 103 1133 0 l 73 0 l 73 992 l 853 992 b 1192 735 1099 992 1192 889 b 1052 540 1192 627 1139 566 l 1052 532 m 752 604 b 845 685 814 604 845 629 b 752 765 845 740 815 765 l 392 765 l 392 604 l 752 604 m 771 224 b 877 316 849 224 877 254 b 771 407 877 377 849 407 l 392 407 l 392 224 l 771 224 "},"C":{"ha":1347,"x_min":0,"x_max":0,"o":"m 926 605 b 679 766 922 671 868 766 b 394 496 490 766 394 664 b 679 226 394 328 490 226 b 924 408 868 226 918 314 l 1305 408 b 679 -33 1298 121 1064 -33 b 43 496 294 -33 43 135 b 679 1024 43 857 294 1024 b 1302 605 1064 1024 1295 871 l 926 605 "},"Ć":{"ha":1347,"x_min":0,"x_max":0,"o":"m 821 1080 l 553 1080 l 665 1285 l 1087 1285 m 926 605 b 679 766 922 671 868 766 b 394 496 490 766 394 664 b 679 226 394 328 490 226 b 924 408 868 226 918 314 l 1305 408 b 679 -33 1298 121 1064 -33 b 43 496 294 -33 43 135 b 679 1024 43 857 294 1024 b 1302 605 1064 1024 1295 871 l 926 605 "},"Č":{"ha":1347,"x_min":0,"x_max":0,"o":"m 1079 1285 l 897 1081 l 461 1081 l 279 1285 l 597 1285 l 675 1187 l 683 1187 l 761 1285 m 926 605 b 679 766 922 671 868 766 b 394 496 490 766 394 664 b 679 226 394 328 490 226 b 924 408 868 226 918 314 l 1305 408 b 679 -33 1298 121 1064 -33 b 43 496 294 -33 43 135 b 679 1024 43 857 294 1024 b 1302 605 1064 1024 1295 871 l 926 605 "},"Ç":{"ha":1347,"x_min":0,"x_max":0,"o":"m 1305 408 b 752 -31 1298 140 1093 -12 l 721 -69 b 756 -66 728 -68 745 -66 b 971 -203 903 -66 971 -103 b 684 -353 971 -314 888 -353 b 475 -328 619 -353 553 -350 l 475 -214 l 484 -214 b 673 -244 562 -238 598 -244 b 755 -204 723 -244 755 -235 b 673 -165 755 -173 723 -165 b 559 -176 645 -165 587 -169 l 550 -176 l 550 -106 l 612 -31 b 43 496 266 -12 43 155 b 679 1024 43 857 294 1024 b 1302 605 1064 1024 1295 871 l 926 605 b 679 766 922 671 868 766 b 394 496 490 766 394 664 b 679 226 394 328 490 226 b 924 408 868 226 918 314 l 1305 408 "},"Ĉ":{"ha":1347,"x_min":0,"x_max":0,"o":"m 683 1178 l 675 1178 l 597 1080 l 279 1080 l 461 1284 l 897 1284 l 1079 1080 l 761 1080 m 926 605 b 679 766 922 671 868 766 b 394 496 490 766 394 664 b 679 226 394 328 490 226 b 924 408 868 226 918 314 l 1305 408 b 679 -33 1298 121 1064 -33 b 43 496 294 -33 43 135 b 679 1024 43 857 294 1024 b 1302 605 1064 1024 1295 871 l 926 605 "},"Ċ":{"ha":1347,"x_min":0,"x_max":0,"o":"m 519 1253 l 839 1253 l 839 1081 l 519 1081 m 926 605 b 679 766 922 671 868 766 b 394 496 490 766 394 664 b 679 226 394 328 490 226 b 924 408 868 226 918 314 l 1305 408 b 679 -33 1298 121 1064 -33 b 43 496 294 -33 43 135 b 679 1024 43 857 294 1024 b 1302 605 1064 1024 1295 871 l 926 605 "},"D":{"ha":1288,"x_min":0,"x_max":0,"o":"m 682 992 b 1244 496 1048 992 1244 857 b 682 0 1244 135 1048 0 l 73 0 l 73 992 l 682 992 m 392 740 l 392 252 l 617 252 b 893 496 797 252 893 318 b 617 740 893 674 797 740 "},"Ð":{"ha":1311,"x_min":0,"x_max":0,"o":"m 706 992 b 1268 496 1072 992 1268 857 b 706 0 1268 135 1072 0 l 97 0 l 97 409 l -5 409 l -5 584 l 97 584 l 97 992 l 706 992 m 641 252 b 917 496 821 252 917 318 b 641 740 917 674 821 740 l 416 740 l 416 584 l 635 584 l 635 409 l 416 409 l 416 252 l 641 252 "},"Ď":{"ha":1288,"x_min":0,"x_max":0,"o":"m 991 1284 l 809 1080 l 373 1080 l 191 1284 l 509 1284 l 587 1186 l 595 1186 l 673 1284 m 682 992 b 1244 496 1048 992 1244 857 b 682 0 1244 135 1048 0 l 73 0 l 73 992 l 682 992 m 392 740 l 392 252 l 617 252 b 893 496 797 252 893 318 b 617 740 893 674 797 740 "},"Đ":{"ha":1400,"x_min":0,"x_max":0,"o":"m 784 992 b 1347 496 1150 992 1347 857 b 784 0 1347 135 1150 0 l 175 0 l 175 409 l 73 409 l 73 584 l 175 584 l 175 992 l 784 992 m 719 252 b 995 496 899 252 995 318 b 719 740 995 674 899 740 l 494 740 l 494 584 l 713 584 l 713 409 l 494 409 l 494 252 l 719 252 "},"E":{"ha":1139,"x_min":0,"x_max":0,"o":"m 392 614 l 1043 614 l 1043 394 l 392 394 l 392 236 l 1086 236 l 1086 0 l 73 0 l 73 992 l 1071 992 l 1071 753 l 392 753 "},"É":{"ha":1139,"x_min":0,"x_max":0,"o":"m 715 1080 l 447 1080 l 558 1285 l 980 1285 m 392 614 l 1043 614 l 1043 394 l 392 394 l 392 236 l 1086 236 l 1086 0 l 73 0 l 73 992 l 1071 992 l 1071 753 l 392 753 "},"Ĕ":{"ha":1139,"x_min":0,"x_max":0,"o":"m 905 1289 b 572 1063 900 1133 728 1063 b 241 1289 417 1063 245 1133 l 486 1289 b 572 1231 491 1246 524 1231 b 659 1289 621 1231 653 1246 l 905 1289 m 392 614 l 1043 614 l 1043 394 l 392 394 l 392 236 l 1086 236 l 1086 0 l 73 0 l 73 992 l 1071 992 l 1071 753 l 392 753 "},"Ě":{"ha":1139,"x_min":0,"x_max":0,"o":"m 973 1285 l 790 1081 l 354 1081 l 172 1285 l 490 1285 l 568 1187 l 576 1187 l 654 1285 m 392 614 l 1043 614 l 1043 394 l 392 394 l 392 236 l 1086 236 l 1086 0 l 73 0 l 73 992 l 1071 992 l 1071 753 l 392 753 "},"Ê":{"ha":1139,"x_min":0,"x_max":0,"o":"m 576 1178 l 568 1178 l 490 1080 l 172 1080 l 354 1284 l 790 1284 l 973 1080 l 654 1080 m 392 614 l 1043 614 l 1043 394 l 392 394 l 392 236 l 1086 236 l 1086 0 l 73 0 l 73 992 l 1071 992 l 1071 753 l 392 753 "},"Ë":{"ha":1139,"x_min":0,"x_max":0,"o":"m 223 1253 l 511 1253 l 511 1081 l 223 1081 m 633 1253 l 922 1253 l 922 1081 l 633 1081 m 392 614 l 1043 614 l 1043 394 l 392 394 l 392 236 l 1086 236 l 1086 0 l 73 0 l 73 992 l 1071 992 l 1071 753 l 392 753 "},"Ė":{"ha":1139,"x_min":0,"x_max":0,"o":"m 413 1253 l 732 1253 l 732 1081 l 413 1081 m 392 614 l 1043 614 l 1043 394 l 392 394 l 392 236 l 1086 236 l 1086 0 l 73 0 l 73 992 l 1071 992 l 1071 753 l 392 753 "},"È":{"ha":1139,"x_min":0,"x_max":0,"o":"m 599 1285 l 711 1080 l 443 1080 l 177 1285 m 392 614 l 1043 614 l 1043 394 l 392 394 l 392 236 l 1086 236 l 1086 0 l 73 0 l 73 992 l 1071 992 l 1071 753 l 392 753 "},"Ē":{"ha":1139,"x_min":0,"x_max":0,"o":"m 240 1083 l 240 1253 l 905 1253 l 905 1083 m 392 614 l 1043 614 l 1043 394 l 392 394 l 392 236 l 1086 236 l 1086 0 l 73 0 l 73 992 l 1071 992 l 1071 753 l 392 753 "},"Ę":{"ha":1139,"x_min":0,"x_max":0,"o":"m 1086 0 b 930 -131 988 -31 930 -88 b 1003 -183 930 -169 964 -183 b 1086 -172 1043 -183 1066 -176 l 1086 -322 b 942 -335 1044 -332 1002 -335 b 665 -180 753 -335 665 -276 b 839 0 665 -106 740 -36 l 73 0 l 73 992 l 1071 992 l 1071 753 l 392 753 l 392 614 l 1043 614 l 1043 394 l 392 394 l 392 236 l 1086 236 l 1086 0 "},"F":{"ha":1118,"x_min":0,"x_max":0,"o":"m 392 743 l 392 565 l 1043 565 l 1043 331 l 392 331 l 392 0 l 73 0 l 73 992 l 1074 992 l 1074 743 "},"G":{"ha":1378,"x_min":0,"x_max":0,"o":"m 1312 0 l 1087 0 l 1087 107 b 703 -33 991 9 857 -33 b 43 496 294 -33 43 135 b 692 1024 43 857 294 1024 b 1308 647 1093 1024 1294 871 l 933 647 b 693 766 926 671 897 766 b 394 496 490 766 394 664 b 703 215 394 318 490 215 b 957 348 895 215 957 313 l 727 348 l 727 553 l 1312 553 "},"Ğ":{"ha":1378,"x_min":0,"x_max":0,"o":"m 1025 1289 b 692 1063 1020 1133 848 1063 b 361 1289 537 1063 365 1133 l 606 1289 b 692 1231 611 1246 644 1231 b 779 1289 741 1231 773 1246 l 1025 1289 m 1312 0 l 1087 0 l 1087 107 b 703 -33 991 9 857 -33 b 43 496 294 -33 43 135 b 692 1024 43 857 294 1024 b 1308 647 1093 1024 1294 871 l 933 647 b 693 766 926 671 897 766 b 394 496 490 766 394 664 b 703 215 394 318 490 215 b 957 348 895 215 957 313 l 727 348 l 727 553 l 1312 553 "},"Ĝ":{"ha":1378,"x_min":0,"x_max":0,"o":"m 696 1178 l 688 1178 l 610 1080 l 292 1080 l 474 1284 l 910 1284 l 1093 1080 l 774 1080 m 1312 0 l 1087 0 l 1087 107 b 703 -33 991 9 857 -33 b 43 496 294 -33 43 135 b 692 1024 43 857 294 1024 b 1308 647 1093 1024 1294 871 l 933 647 b 693 766 926 671 897 766 b 394 496 490 766 394 664 b 703 215 394 318 490 215 b 957 348 895 215 957 313 l 727 348 l 727 553 l 1312 553 "},"Ģ":{"ha":1378,"x_min":0,"x_max":0,"o":"m 1312 0 l 1087 0 l 1087 107 b 703 -33 991 9 857 -33 b 43 496 294 -33 43 135 b 692 1024 43 857 294 1024 b 1308 647 1093 1024 1294 871 l 933 647 b 693 766 926 671 897 766 b 394 496 490 766 394 664 b 703 215 394 318 490 215 b 957 348 895 215 957 313 l 727 348 l 727 553 l 1312 553 m 863 -214 b 543 -406 863 -349 841 -406 l 543 -326 b 684 -257 678 -326 684 -295 l 543 -257 l 543 -85 l 863 -85 "},"Ġ":{"ha":1378,"x_min":0,"x_max":0,"o":"m 532 1253 l 852 1253 l 852 1081 l 532 1081 m 1312 0 l 1087 0 l 1087 107 b 703 -33 991 9 857 -33 b 43 496 294 -33 43 135 b 692 1024 43 857 294 1024 b 1308 647 1093 1024 1294 871 l 933 647 b 693 766 926 671 897 766 b 394 496 490 766 394 664 b 703 215 394 318 490 215 b 957 348 895 215 957 313 l 727 348 l 727 553 l 1312 553 "},"H":{"ha":1293,"x_min":0,"x_max":0,"o":"m 1220 992 l 1220 0 l 901 0 l 901 381 l 392 380 l 392 0 l 73 0 l 73 992 l 392 992 l 392 631 l 901 631 l 901 992 "},"Ħ":{"ha":1344,"x_min":0,"x_max":0,"o":"m 1348 722 l 1246 722 l 1246 0 l 926 0 l 926 380 l 418 380 l 418 0 l 99 0 l 99 722 l -3 722 l -3 898 l 99 898 l 99 992 l 418 992 l 418 898 l 926 898 l 926 992 l 1246 992 l 1246 898 l 1348 898 m 926 722 l 418 722 l 418 631 l 926 631 "},"Ĥ":{"ha":1293,"x_min":0,"x_max":0,"o":"m 651 1178 l 643 1178 l 565 1080 l 247 1080 l 429 1284 l 865 1284 l 1047 1080 l 729 1080 m 1220 992 l 1220 0 l 901 0 l 901 381 l 392 380 l 392 0 l 73 0 l 73 992 l 392 992 l 392 631 l 901 631 l 901 992 "},"I":{"ha":465,"x_min":0,"x_max":0,"o":"m 73 0 l 73 992 l 392 992 l 392 0 "},"Ĳ":{"ha":1643,"x_min":0,"x_max":0,"o":"m 73 0 l 73 992 l 392 992 l 392 0 m 1571 436 b 1030 -31 1571 63 1353 -31 b 495 436 705 -31 495 63 l 495 500 l 814 500 l 814 431 b 1030 227 814 272 904 227 b 1251 431 1155 227 1251 272 l 1251 992 l 1571 992 "},"Í":{"ha":714,"x_min":0,"x_max":0,"o":"m 375 1080 l 107 1080 l 218 1285 l 640 1285 m 73 0 l 73 992 l 392 992 l 392 0 "},"Ĭ":{"ha":810,"x_min":0,"x_max":0,"o":"m 737 1289 b 404 1063 732 1133 560 1063 b 73 1289 249 1063 77 1133 l 318 1289 b 404 1231 324 1246 356 1231 b 491 1289 453 1231 485 1246 l 737 1289 m 245 0 l 245 992 l 564 992 l 564 0 "},"Î":{"ha":947,"x_min":0,"x_max":0,"o":"m 477 1178 l 469 1178 l 391 1080 l 73 1080 l 255 1284 l 691 1284 l 874 1080 l 555 1080 m 314 0 l 314 992 l 633 992 l 633 0 "},"Ï":{"ha":844,"x_min":0,"x_max":0,"o":"m 73 1253 l 361 1253 l 361 1081 l 73 1081 m 484 1253 l 772 1253 l 772 1081 l 484 1081 m 263 0 l 263 992 l 582 992 l 582 0 "},"İ":{"ha":465,"x_min":0,"x_max":0,"o":"m 73 1253 l 392 1253 l 392 1081 l 73 1081 m 73 0 l 73 992 l 392 992 l 392 0 "},"Ì":{"ha":700,"x_min":0,"x_max":0,"o":"m 495 1285 l 606 1080 l 338 1080 l 73 1285 m 308 0 l 308 992 l 628 992 l 628 0 "},"Ī":{"ha":811,"x_min":0,"x_max":0,"o":"m 73 1083 l 73 1253 l 738 1253 l 738 1083 m 246 0 l 246 992 l 565 992 l 565 0 "},"Į":{"ha":567,"x_min":0,"x_max":0,"o":"m 494 0 b 338 -131 396 -31 338 -88 b 411 -183 338 -169 372 -183 b 494 -172 451 -183 475 -176 l 494 -322 b 350 -335 452 -332 411 -335 b 73 -180 162 -335 73 -276 b 247 0 73 -106 149 -36 l 174 0 l 174 992 l 494 992 l 494 0 "},"Ĩ":{"ha":882,"x_min":0,"x_max":0,"o":"m 589 1055 b 323 1119 497 1055 379 1119 b 277 1070 287 1119 280 1105 l 73 1070 b 290 1303 73 1232 192 1303 b 558 1239 383 1303 503 1239 b 604 1288 595 1239 602 1253 l 808 1288 b 589 1055 808 1126 686 1055 m 282 0 l 282 992 l 601 992 l 601 0 "},"J":{"ha":1178,"x_min":0,"x_max":0,"o":"m 1105 436 b 564 -31 1105 63 887 -31 b 30 436 240 -31 30 63 l 30 500 l 349 500 l 349 431 b 564 227 349 272 439 227 b 786 431 689 227 786 272 l 786 992 l 1105 992 "},"Ĵ":{"ha":1419,"x_min":0,"x_max":0,"o":"m 950 1178 l 941 1178 l 864 1080 l 545 1080 l 728 1284 l 1164 1284 l 1346 1080 l 1028 1080 m 1105 436 b 564 -31 1105 63 887 -31 b 30 436 240 -31 30 63 l 30 500 l 349 500 l 349 431 b 564 227 349 272 439 227 b 786 431 689 227 786 272 l 786 992 l 1105 992 "},"K":{"ha":1274,"x_min":0,"x_max":0,"o":"m 1277 0 l 890 0 l 588 437 l 392 264 l 392 0 l 73 0 l 73 992 l 392 992 l 392 594 l 821 992 l 1213 992 l 819 641 "},"Ķ":{"ha":1274,"x_min":0,"x_max":0,"o":"m 1277 0 l 890 0 l 588 437 l 392 264 l 392 0 l 73 0 l 73 992 l 392 992 l 392 594 l 821 992 l 1213 992 l 819 641 m 802 -214 b 482 -406 802 -349 780 -406 l 482 -326 b 623 -257 617 -326 623 -295 l 482 -257 l 482 -85 l 802 -85 "},"L":{"ha":1108,"x_min":0,"x_max":0,"o":"m 73 0 l 73 992 l 392 992 l 392 250 l 1070 250 l 1070 0 "},"Ĺ":{"ha":1108,"x_min":0,"x_max":0,"o":"m 375 1080 l 107 1080 l 218 1285 l 640 1285 m 73 0 l 73 992 l 392 992 l 392 250 l 1070 250 l 1070 0 "},"Ľ":{"ha":1108,"x_min":0,"x_max":0,"o":"m 897 827 b 584 523 897 605 803 523 l 584 621 b 726 764 693 621 726 690 l 584 764 l 584 1006 l 897 1006 m 73 0 l 73 992 l 392 992 l 392 250 l 1070 250 l 1070 0 "},"Ļ":{"ha":1108,"x_min":0,"x_max":0,"o":"m 73 0 l 73 992 l 392 992 l 392 250 l 1070 250 l 1070 0 m 732 -214 b 413 -406 732 -349 710 -406 l 413 -326 b 553 -257 547 -326 553 -295 l 413 -257 l 413 -85 l 732 -85 "},"Ŀ":{"ha":1108,"x_min":0,"x_max":0,"o":"m 73 0 l 73 992 l 394 992 l 394 249 l 1070 249 l 1070 0 m 755 381 b 581 555 658 381 581 458 b 755 729 581 652 658 729 b 928 555 851 729 928 652 b 755 381 928 458 851 381 "},"Ł":{"ha":1115,"x_min":0,"x_max":0,"o":"m 1078 250 l 1078 0 l 81 0 l 81 264 l 16 238 l 16 470 l 81 496 l 81 992 l 400 992 l 400 625 l 803 788 l 803 556 l 400 393 l 400 250 "},"M":{"ha":1553,"x_min":0,"x_max":0,"o":"m 1480 0 l 1161 0 l 1161 691 l 1152 691 l 897 0 l 645 0 l 385 701 l 377 701 l 377 0 l 73 0 l 73 992 l 578 992 l 768 412 l 776 412 l 964 992 l 1480 992 "},"N":{"ha":1293,"x_min":0,"x_max":0,"o":"m 1220 992 l 1220 0 l 853 0 l 385 610 l 377 610 l 377 0 l 73 0 l 73 992 l 450 992 l 907 394 l 916 394 l 916 992 "},"Ń":{"ha":1293,"x_min":0,"x_max":0,"o":"m 789 1080 l 521 1080 l 633 1285 l 1055 1285 m 1220 992 l 1220 0 l 853 0 l 385 610 l 377 610 l 377 0 l 73 0 l 73 992 l 450 992 l 907 394 l 916 394 l 916 992 "},"Ň":{"ha":1293,"x_min":0,"x_max":0,"o":"m 1047 1285 l 865 1081 l 429 1081 l 247 1285 l 565 1285 l 643 1187 l 651 1187 l 729 1285 m 1220 992 l 1220 0 l 853 0 l 385 610 l 377 610 l 377 0 l 73 0 l 73 992 l 450 992 l 907 394 l 916 394 l 916 992 "},"Ņ":{"ha":1293,"x_min":0,"x_max":0,"o":"m 1220 992 l 1220 0 l 853 0 l 385 610 l 377 610 l 377 0 l 73 0 l 73 992 l 450 992 l 907 394 l 916 394 l 916 992 m 807 -214 b 487 -406 807 -349 785 -406 l 487 -326 b 628 -257 622 -326 628 -295 l 487 -257 l 487 -85 l 807 -85 "},"Ŋ":{"ha":1293,"x_min":0,"x_max":0,"o":"m 1220 992 l 1220 7 b 812 -274 1220 -176 1103 -274 b 404 1 527 -274 404 -172 b 406 26 404 10 404 16 l 695 26 l 695 6 b 805 -63 695 -33 726 -63 b 913 -11 872 -63 905 -42 l 385 616 l 377 616 l 377 0 l 73 0 l 73 992 l 450 992 l 907 448 l 916 448 l 916 992 "},"Ñ":{"ha":1293,"x_min":0,"x_max":0,"o":"m 795 1055 b 528 1119 703 1055 584 1119 b 483 1070 492 1119 485 1105 l 279 1070 b 495 1303 279 1232 398 1303 b 764 1239 589 1303 708 1239 b 810 1288 800 1239 807 1253 l 1014 1288 b 795 1055 1014 1126 892 1055 m 1220 992 l 1220 0 l 853 0 l 385 610 l 377 610 l 377 0 l 73 0 l 73 992 l 450 992 l 907 394 l 916 394 l 916 992 "},"O":{"ha":1390,"x_min":0,"x_max":0,"o":"m 695 1024 b 1348 496 1096 1024 1348 857 b 695 -33 1348 135 1096 -33 b 43 496 294 -33 43 135 b 695 1024 43 857 294 1024 m 695 226 b 997 496 900 226 997 328 b 695 766 997 664 900 766 b 394 496 490 766 394 664 b 695 226 394 328 490 226 "},"Ó":{"ha":1390,"x_min":0,"x_max":0,"o":"m 838 1080 l 569 1080 l 681 1285 l 1103 1285 m 695 1024 b 1348 496 1096 1024 1348 857 b 695 -33 1348 135 1096 -33 b 43 496 294 -33 43 135 b 695 1024 43 857 294 1024 m 695 226 b 997 496 900 226 997 328 b 695 766 997 664 900 766 b 394 496 490 766 394 664 b 695 226 394 328 490 226 "},"Ŏ":{"ha":1390,"x_min":0,"x_max":0,"o":"m 1028 1289 b 695 1063 1023 1133 851 1063 b 364 1289 540 1063 368 1133 l 609 1289 b 695 1231 614 1246 647 1231 b 782 1289 744 1231 776 1246 l 1028 1289 m 695 1024 b 1348 496 1096 1024 1348 857 b 695 -33 1348 135 1096 -33 b 43 496 294 -33 43 135 b 695 1024 43 857 294 1024 m 695 226 b 997 496 900 226 997 328 b 695 766 997 664 900 766 b 394 496 490 766 394 664 b 695 226 394 328 490 226 "},"Ô":{"ha":1390,"x_min":0,"x_max":0,"o":"m 699 1178 l 691 1178 l 613 1080 l 295 1080 l 477 1284 l 913 1284 l 1095 1080 l 777 1080 m 695 1024 b 1348 496 1096 1024 1348 857 b 695 -33 1348 135 1096 -33 b 43 496 294 -33 43 135 b 695 1024 43 857 294 1024 m 695 226 b 997 496 900 226 997 328 b 695 766 997 664 900 766 b 394 496 490 766 394 664 b 695 226 394 328 490 226 "},"Ö":{"ha":1390,"x_min":0,"x_max":0,"o":"m 346 1253 l 634 1253 l 634 1081 l 346 1081 m 756 1253 l 1045 1253 l 1045 1081 l 756 1081 m 695 1024 b 1348 496 1096 1024 1348 857 b 695 -33 1348 135 1096 -33 b 43 496 294 -33 43 135 b 695 1024 43 857 294 1024 m 695 226 b 997 496 900 226 997 328 b 695 766 997 664 900 766 b 394 496 490 766 394 664 b 695 226 394 328 490 226 "},"Ò":{"ha":1390,"x_min":0,"x_max":0,"o":"m 722 1285 l 833 1080 l 565 1080 l 300 1285 m 695 1024 b 1348 496 1096 1024 1348 857 b 695 -33 1348 135 1096 -33 b 43 496 294 -33 43 135 b 695 1024 43 857 294 1024 m 695 226 b 997 496 900 226 997 328 b 695 766 997 664 900 766 b 394 496 490 766 394 664 b 695 226 394 328 490 226 "},"Ő":{"ha":1390,"x_min":0,"x_max":0,"o":"m 619 1079 l 368 1079 l 470 1285 l 800 1285 m 1021 1079 l 770 1079 l 873 1285 l 1202 1285 m 695 1024 b 1348 496 1096 1024 1348 857 b 695 -33 1348 135 1096 -33 b 43 496 294 -33 43 135 b 695 1024 43 857 294 1024 m 695 226 b 997 496 900 226 997 328 b 695 766 997 664 900 766 b 394 496 490 766 394 664 b 695 226 394 328 490 226 "},"Ō":{"ha":1390,"x_min":0,"x_max":0,"o":"m 363 1083 l 363 1253 l 1028 1253 l 1028 1083 m 695 1024 b 1348 496 1096 1024 1348 857 b 695 -33 1348 135 1096 -33 b 43 496 294 -33 43 135 b 695 1024 43 857 294 1024 m 695 226 b 997 496 900 226 997 328 b 695 766 997 664 900 766 b 394 496 490 766 394 664 b 695 226 394 328 490 226 "},"Ø":{"ha":1390,"x_min":0,"x_max":0,"o":"m 1215 858 b 1348 496 1301 772 1348 652 b 695 -33 1348 135 1096 -33 b 285 53 531 -33 392 -5 l 160 -56 l 51 26 l 176 134 b 43 496 90 220 43 340 b 695 1024 43 857 294 1024 b 1105 939 859 1024 998 996 l 1230 1047 l 1340 966 l 1215 858 m 394 496 b 426 351 394 440 405 391 l 866 732 b 695 766 821 754 765 766 b 394 496 490 766 394 664 m 695 226 b 997 496 900 226 997 328 b 964 640 997 552 986 600 l 524 259 b 695 226 569 237 626 226 "},"Ǿ":{"ha":1390,"x_min":0,"x_max":0,"o":"m 864 1080 l 546 1080 l 678 1285 l 1180 1285 m 1215 858 b 1348 496 1301 772 1348 652 b 695 -33 1348 135 1096 -33 b 285 53 531 -33 392 -5 l 160 -56 l 51 26 l 176 134 b 43 496 90 220 43 340 b 695 1024 43 857 294 1024 b 1105 939 859 1024 998 996 l 1230 1047 l 1340 966 l 1215 858 m 394 496 b 426 351 394 440 405 391 l 866 732 b 695 766 821 754 765 766 b 394 496 490 766 394 664 m 695 226 b 997 496 900 226 997 328 b 964 640 997 552 986 600 l 524 259 b 695 226 569 237 626 226 "},"Õ":{"ha":1390,"x_min":0,"x_max":0,"o":"m 843 1055 b 577 1119 751 1055 632 1119 b 531 1070 540 1119 533 1105 l 327 1070 b 543 1303 327 1232 446 1303 b 812 1239 637 1303 756 1239 b 858 1288 848 1239 855 1253 l 1062 1288 b 843 1055 1062 1126 940 1055 m 695 1024 b 1348 496 1096 1024 1348 857 b 695 -33 1348 135 1096 -33 b 43 496 294 -33 43 135 b 695 1024 43 857 294 1024 m 695 226 b 997 496 900 226 997 328 b 695 766 997 664 900 766 b 394 496 490 766 394 664 b 695 226 394 328 490 226 "},"Œ":{"ha":1981,"x_min":0,"x_max":0,"o":"m 1927 236 l 1927 0 l 997 0 l 997 93 l 988 93 b 627 -33 918 14 788 -33 b 43 496 294 -33 43 135 b 627 1024 43 857 294 1024 b 988 899 788 1024 918 978 l 997 899 l 997 992 l 1913 992 l 1913 753 l 1302 753 l 1302 614 l 1884 614 l 1884 394 l 1302 394 l 1302 236 m 695 230 b 997 496 884 230 997 325 b 695 761 997 668 884 761 b 394 496 506 761 394 668 b 695 230 394 325 506 230 "},"P":{"ha":1225,"x_min":0,"x_max":0,"o":"m 807 992 b 1198 655 1091 992 1198 879 b 807 319 1198 432 1090 319 l 392 319 l 392 0 l 73 0 l 73 992 l 807 992 m 729 545 b 847 646 814 545 847 579 b 729 748 847 714 814 748 l 392 748 l 392 545 l 729 545 "},"Þ":{"ha":1244,"x_min":0,"x_max":0,"o":"m 807 862 b 1198 525 1091 862 1198 749 b 807 190 1198 302 1090 190 l 392 190 l 392 0 l 73 0 l 73 992 l 392 992 l 392 862 l 807 862 m 729 415 b 847 516 814 415 847 449 b 729 618 847 584 814 618 l 392 618 l 392 415 l 729 415 "},"Q":{"ha":1390,"x_min":0,"x_max":0,"o":"m 1348 496 b 1084 42 1348 273 1252 124 l 1152 -71 l 960 -150 l 882 -19 b 695 -33 824 -28 762 -33 b 43 496 294 -33 43 135 b 695 1024 43 857 294 1024 b 1348 496 1096 1024 1348 857 m 928 303 b 997 496 974 349 997 415 b 695 766 997 664 900 766 b 394 496 490 766 394 664 b 695 226 394 328 490 226 b 735 227 709 226 722 226 l 657 357 l 848 436 "},"R":{"ha":1264,"x_min":0,"x_max":0,"o":"m 1247 0 l 883 0 l 693 319 l 392 319 l 392 0 l 73 0 l 73 992 l 830 992 b 1221 666 1114 992 1221 878 b 1008 388 1221 489 1135 420 l 1008 376 m 755 545 b 865 641 833 545 865 578 b 755 737 865 704 834 737 l 392 737 l 392 545 l 755 545 "},"Ŕ":{"ha":1264,"x_min":0,"x_max":0,"o":"m 769 1078 l 501 1078 l 612 1284 l 1034 1284 m 1247 0 l 883 0 l 693 319 l 392 319 l 392 0 l 73 0 l 73 992 l 830 992 b 1221 666 1114 992 1221 878 b 1008 388 1221 489 1135 420 l 1008 376 m 755 545 b 865 641 833 545 865 578 b 755 737 865 704 834 737 l 392 737 l 392 545 l 755 545 "},"Ř":{"ha":1264,"x_min":0,"x_max":0,"o":"m 1027 1284 l 844 1080 l 408 1080 l 226 1284 l 544 1284 l 622 1185 l 630 1185 l 708 1284 m 1247 0 l 883 0 l 693 319 l 392 319 l 392 0 l 73 0 l 73 992 l 830 992 b 1221 666 1114 992 1221 878 b 1008 388 1221 489 1135 420 l 1008 376 m 755 545 b 865 641 833 545 865 578 b 755 737 865 704 834 737 l 392 737 l 392 545 l 755 545 "},"Ŗ":{"ha":1264,"x_min":0,"x_max":0,"o":"m 1247 0 l 883 0 l 693 319 l 392 319 l 392 0 l 73 0 l 73 992 l 830 992 b 1221 666 1114 992 1221 878 b 1008 388 1221 489 1135 420 l 1008 376 m 755 545 b 865 641 833 545 865 578 b 755 737 865 704 834 737 l 392 737 l 392 545 l 755 545 m 797 -214 b 478 -406 797 -349 776 -406 l 478 -326 b 619 -257 612 -326 619 -295 l 478 -257 l 478 -85 l 797 -85 "},"S":{"ha":1243,"x_min":0,"x_max":0,"o":"m 806 694 b 592 806 799 777 718 806 b 411 723 460 806 411 772 b 525 648 411 675 449 656 l 870 609 b 1206 303 1087 584 1206 495 b 606 -33 1206 27 976 -33 b 20 330 255 -33 32 32 l 386 330 b 619 192 395 213 485 192 b 827 280 763 192 827 221 b 693 369 827 338 774 359 l 383 408 b 44 704 170 434 44 512 b 603 1024 44 956 280 1024 b 1171 694 923 1024 1160 958 l 806 694 "},"Ś":{"ha":1243,"x_min":0,"x_max":0,"o":"m 745 1080 l 477 1080 l 589 1285 l 1010 1285 m 806 694 b 592 806 799 777 718 806 b 411 723 460 806 411 772 b 525 648 411 675 449 656 l 870 609 b 1206 303 1087 584 1206 495 b 606 -33 1206 27 976 -33 b 20 330 255 -33 32 32 l 386 330 b 619 192 395 213 485 192 b 827 280 763 192 827 221 b 693 369 827 338 774 359 l 383 408 b 44 704 170 434 44 512 b 603 1024 44 956 280 1024 b 1171 694 923 1024 1160 958 l 806 694 "},"Š":{"ha":1243,"x_min":0,"x_max":0,"o":"m 1003 1285 l 821 1081 l 385 1081 l 202 1285 l 521 1285 l 599 1187 l 607 1187 l 685 1285 m 806 694 b 592 806 799 777 718 806 b 411 723 460 806 411 772 b 525 648 411 675 449 656 l 870 609 b 1206 303 1087 584 1206 495 b 606 -33 1206 27 976 -33 b 20 330 255 -33 32 32 l 386 330 b 619 192 395 213 485 192 b 827 280 763 192 827 221 b 693 369 827 338 774 359 l 383 408 b 44 704 170 434 44 512 b 603 1024 44 956 280 1024 b 1171 694 923 1024 1160 958 l 806 694 "},"Ş":{"ha":1260,"x_min":0,"x_max":0,"o":"m 1206 303 b 683 -31 1206 46 1008 -23 l 653 -69 b 688 -66 660 -68 677 -66 b 903 -203 835 -66 903 -103 b 616 -353 903 -314 820 -353 b 407 -328 551 -353 485 -350 l 407 -214 l 416 -214 b 605 -244 494 -238 530 -244 b 687 -204 655 -244 687 -235 b 605 -165 687 -173 655 -165 b 491 -176 577 -165 519 -169 l 482 -176 l 482 -106 l 542 -31 b 20 330 227 -23 31 51 l 386 330 b 619 192 395 213 485 192 b 827 280 763 192 827 221 b 693 369 827 338 774 359 l 383 408 b 44 704 170 434 44 512 b 603 1024 44 956 280 1024 b 1171 694 923 1024 1160 958 l 806 694 b 592 806 799 777 718 806 b 411 723 460 806 411 772 b 525 648 411 675 449 656 l 870 609 b 1206 303 1087 584 1206 495 "},"Ŝ":{"ha":1243,"x_min":0,"x_max":0,"o":"m 607 1178 l 599 1178 l 521 1080 l 202 1080 l 385 1284 l 821 1284 l 1003 1080 l 685 1080 m 806 694 b 592 806 799 777 718 806 b 411 723 460 806 411 772 b 525 648 411 675 449 656 l 870 609 b 1206 303 1087 584 1206 495 b 606 -33 1206 27 976 -33 b 20 330 255 -33 32 32 l 386 330 b 619 192 395 213 485 192 b 827 280 763 192 827 221 b 693 369 827 338 774 359 l 383 408 b 44 704 170 434 44 512 b 603 1024 44 956 280 1024 b 1171 694 923 1024 1160 958 l 806 694 "},"Ș":{"ha":1243,"x_min":0,"x_max":0,"o":"m 806 694 b 592 806 799 777 718 806 b 411 723 460 806 411 772 b 525 648 411 675 449 656 l 870 609 b 1206 303 1087 584 1206 495 b 606 -33 1206 27 976 -33 b 20 330 255 -33 32 32 l 386 330 b 619 192 395 213 485 192 b 827 280 763 192 827 221 b 693 369 827 338 774 359 l 383 408 b 44 704 170 434 44 512 b 603 1024 44 956 280 1024 b 1171 694 923 1024 1160 958 l 806 694 m 766 -214 b 447 -406 766 -349 744 -406 l 447 -326 b 588 -257 581 -326 588 -295 l 447 -257 l 447 -85 l 766 -85 "},"T":{"ha":1126,"x_min":0,"x_max":0,"o":"m 1098 738 l 723 738 l 723 0 l 404 0 l 404 738 l 28 738 l 28 992 l 1098 992 "},"Ŧ":{"ha":1126,"x_min":0,"x_max":0,"o":"m 723 738 l 723 527 l 917 527 l 917 318 l 723 318 l 723 0 l 404 0 l 404 318 l 210 318 l 210 527 l 404 527 l 404 738 l 28 738 l 28 992 l 1098 992 l 1098 738 "},"Ť":{"ha":1126,"x_min":0,"x_max":0,"o":"m 964 1285 l 781 1081 l 345 1081 l 163 1285 l 481 1285 l 559 1187 l 568 1187 l 645 1285 m 1098 738 l 723 738 l 723 0 l 404 0 l 404 738 l 28 738 l 28 992 l 1098 992 "},"Ţ":{"ha":1126,"x_min":0,"x_max":0,"o":"m 647 0 l 591 -69 b 626 -66 598 -68 615 -66 b 840 -203 773 -66 840 -103 b 554 -353 840 -314 757 -353 b 345 -328 488 -353 423 -350 l 345 -214 l 353 -214 b 543 -244 432 -238 468 -244 b 624 -204 593 -244 624 -235 b 543 -165 624 -173 593 -165 b 428 -176 515 -165 456 -169 l 420 -176 l 420 -106 l 507 0 l 404 0 l 404 738 l 28 738 l 28 992 l 1098 992 l 1098 738 l 723 738 l 723 0 "},"Ț":{"ha":1126,"x_min":0,"x_max":0,"o":"m 1098 738 l 723 738 l 723 0 l 404 0 l 404 738 l 28 738 l 28 992 l 1098 992 m 723 -214 b 404 -406 723 -349 701 -406 l 404 -326 b 544 -257 538 -326 544 -295 l 404 -257 l 404 -85 l 723 -85 "},"U":{"ha":1286,"x_min":0,"x_max":0,"o":"m 1213 992 l 1213 431 b 643 -31 1213 65 989 -31 b 73 431 297 -31 73 65 l 73 992 l 392 992 l 392 431 b 643 226 392 268 490 226 b 893 431 795 226 893 268 l 893 992 "},"Ú":{"ha":1286,"x_min":0,"x_max":0,"o":"m 785 1080 l 517 1080 l 629 1285 l 1051 1285 m 1213 992 l 1213 431 b 643 -31 1213 65 989 -31 b 73 431 297 -31 73 65 l 73 992 l 392 992 l 392 431 b 643 226 392 268 490 226 b 893 431 795 226 893 268 l 893 992 "},"Ŭ":{"ha":1286,"x_min":0,"x_max":0,"o":"m 976 1289 b 643 1063 971 1133 798 1063 b 311 1289 487 1063 316 1133 l 556 1289 b 643 1231 562 1246 594 1231 b 729 1289 691 1231 724 1246 l 976 1289 m 1213 992 l 1213 431 b 643 -31 1213 65 989 -31 b 73 431 297 -31 73 65 l 73 992 l 392 992 l 392 431 b 643 226 392 268 490 226 b 893 431 795 226 893 268 l 893 992 "},"Û":{"ha":1286,"x_min":0,"x_max":0,"o":"m 647 1178 l 639 1178 l 561 1080 l 243 1080 l 425 1284 l 861 1284 l 1043 1080 l 725 1080 m 1213 992 l 1213 431 b 643 -31 1213 65 989 -31 b 73 431 297 -31 73 65 l 73 992 l 392 992 l 392 431 b 643 226 392 268 490 226 b 893 431 795 226 893 268 l 893 992 "},"Ü":{"ha":1286,"x_min":0,"x_max":0,"o":"m 293 1253 l 582 1253 l 582 1081 l 293 1081 m 704 1253 l 992 1253 l 992 1081 l 704 1081 m 1213 992 l 1213 431 b 643 -31 1213 65 989 -31 b 73 431 297 -31 73 65 l 73 992 l 392 992 l 392 431 b 643 226 392 268 490 226 b 893 431 795 226 893 268 l 893 992 "},"Ù":{"ha":1286,"x_min":0,"x_max":0,"o":"m 670 1285 l 781 1080 l 513 1080 l 248 1285 m 1213 992 l 1213 431 b 643 -31 1213 65 989 -31 b 73 431 297 -31 73 65 l 73 992 l 392 992 l 392 431 b 643 226 392 268 490 226 b 893 431 795 226 893 268 l 893 992 "},"Ű":{"ha":1286,"x_min":0,"x_max":0,"o":"m 567 1079 l 315 1079 l 418 1285 l 748 1285 m 969 1079 l 718 1079 l 820 1285 l 1150 1285 m 1213 992 l 1213 431 b 643 -31 1213 65 989 -31 b 73 431 297 -31 73 65 l 73 992 l 392 992 l 392 431 b 643 226 392 268 490 226 b 893 431 795 226 893 268 l 893 992 "},"Ū":{"ha":1286,"x_min":0,"x_max":0,"o":"m 310 1083 l 310 1253 l 976 1253 l 976 1083 m 1213 992 l 1213 431 b 643 -31 1213 65 989 -31 b 73 431 297 -31 73 65 l 73 992 l 392 992 l 392 431 b 643 226 392 268 490 226 b 893 431 795 226 893 268 l 893 992 "},"Ų":{"ha":1286,"x_min":0,"x_max":0,"o":"m 1213 992 l 1213 431 b 918 -1 1213 173 1102 51 b 765 -131 822 -33 765 -88 b 838 -183 765 -169 799 -183 b 921 -172 877 -183 901 -176 l 921 -322 b 777 -335 879 -332 837 -335 b 500 -180 588 -335 500 -276 b 608 -31 500 -123 544 -70 b 73 431 282 -24 73 77 l 73 992 l 392 992 l 392 431 b 643 226 392 268 490 226 b 893 431 795 226 893 268 l 893 992 "},"Ů":{"ha":1286,"x_min":0,"x_max":0,"o":"m 644 1030 b 402 1221 509 1030 402 1103 b 644 1412 402 1339 509 1412 b 887 1221 779 1412 887 1339 b 644 1030 887 1103 779 1030 m 644 1155 b 722 1221 687 1155 722 1180 b 644 1287 722 1262 687 1287 b 566 1221 602 1287 566 1262 b 644 1155 566 1180 602 1155 m 1213 992 l 1213 431 b 643 -31 1213 65 989 -31 b 73 431 297 -31 73 65 l 73 992 l 392 992 l 392 431 b 643 226 392 268 490 226 b 893 431 795 226 893 268 l 893 992 "},"Ũ":{"ha":1286,"x_min":0,"x_max":0,"o":"m 791 1055 b 524 1119 698 1055 580 1119 b 479 1070 488 1119 481 1105 l 274 1070 b 491 1303 274 1232 394 1303 b 760 1239 585 1303 704 1239 b 805 1288 796 1239 803 1253 l 1010 1288 b 791 1055 1010 1126 888 1055 m 1213 992 l 1213 431 b 643 -31 1213 65 989 -31 b 73 431 297 -31 73 65 l 73 992 l 392 992 l 392 431 b 643 226 392 268 490 226 b 893 431 795 226 893 268 l 893 992 "},"V":{"ha":1249,"x_min":0,"x_max":0,"o":"m 620 348 l 628 348 l 887 992 l 1259 992 l 812 0 l 437 0 l -10 992 l 362 992 "},"W":{"ha":1657,"x_min":0,"x_max":0,"o":"m 980 0 l 833 608 l 825 608 l 679 0 l 280 0 l -7 992 l 346 992 l 494 373 l 503 373 l 651 992 l 1006 992 l 1155 373 l 1163 373 l 1313 992 l 1663 992 l 1372 0 "},"Ẃ":{"ha":1657,"x_min":0,"x_max":0,"o":"m 972 1080 l 704 1080 l 815 1285 l 1237 1285 m 980 0 l 833 608 l 825 608 l 679 0 l 280 0 l -7 992 l 346 992 l 494 373 l 503 373 l 651 992 l 1006 992 l 1155 373 l 1163 373 l 1313 992 l 1663 992 l 1372 0 "},"Ŵ":{"ha":1657,"x_min":0,"x_max":0,"o":"m 833 1178 l 825 1178 l 747 1080 l 429 1080 l 611 1284 l 1047 1284 l 1230 1080 l 911 1080 m 980 0 l 833 608 l 825 608 l 679 0 l 280 0 l -7 992 l 346 992 l 494 373 l 503 373 l 651 992 l 1006 992 l 1155 373 l 1163 373 l 1313 992 l 1663 992 l 1372 0 "},"Ẅ":{"ha":1657,"x_min":0,"x_max":0,"o":"m 480 1253 l 768 1253 l 768 1081 l 480 1081 m 891 1253 l 1179 1253 l 1179 1081 l 891 1081 m 980 0 l 833 608 l 825 608 l 679 0 l 280 0 l -7 992 l 346 992 l 494 373 l 503 373 l 651 992 l 1006 992 l 1155 373 l 1163 373 l 1313 992 l 1663 992 l 1372 0 "},"Ẁ":{"ha":1657,"x_min":0,"x_max":0,"o":"m 856 1285 l 968 1080 l 700 1080 l 434 1285 m 980 0 l 833 608 l 825 608 l 679 0 l 280 0 l -7 992 l 346 992 l 494 373 l 503 373 l 651 992 l 1006 992 l 1155 373 l 1163 373 l 1313 992 l 1663 992 l 1372 0 "},"X":{"ha":1263,"x_min":0,"x_max":0,"o":"m 1272 0 l 861 0 l 631 303 l 402 0 l -9 0 l 428 525 l 45 992 l 446 992 l 633 728 l 816 992 l 1218 992 l 835 525 "},"Y":{"ha":1235,"x_min":0,"x_max":0,"o":"m 778 331 l 778 0 l 457 0 l 457 331 l -13 992 l 365 992 l 618 603 l 870 992 l 1248 992 "},"Ý":{"ha":1235,"x_min":0,"x_max":0,"o":"m 760 1080 l 492 1080 l 603 1285 l 1025 1285 m 778 331 l 778 0 l 457 0 l 457 331 l -13 992 l 365 992 l 618 603 l 870 992 l 1248 992 "},"Ŷ":{"ha":1235,"x_min":0,"x_max":0,"o":"m 622 1178 l 614 1178 l 536 1080 l 217 1080 l 400 1284 l 836 1284 l 1018 1080 l 700 1080 m 778 331 l 778 0 l 457 0 l 457 331 l -13 992 l 365 992 l 618 603 l 870 992 l 1248 992 "},"Ÿ":{"ha":1235,"x_min":0,"x_max":0,"o":"m 268 1253 l 556 1253 l 556 1081 l 268 1081 m 679 1253 l 967 1253 l 967 1081 l 679 1081 m 778 331 l 778 0 l 457 0 l 457 331 l -13 992 l 365 992 l 618 603 l 870 992 l 1248 992 "},"Ỳ":{"ha":1235,"x_min":0,"x_max":0,"o":"m 645 1285 l 756 1080 l 488 1080 l 223 1285 m 778 331 l 778 0 l 457 0 l 457 331 l -13 992 l 365 992 l 618 603 l 870 992 l 1248 992 "},"Z":{"ha":1160,"x_min":0,"x_max":0,"o":"m 551 264 l 1108 264 l 1108 0 l 41 0 l 41 253 l 597 727 l 73 727 l 73 992 l 1108 992 l 1108 739 "},"Ź":{"ha":1160,"x_min":0,"x_max":0,"o":"m 733 1080 l 465 1080 l 577 1285 l 999 1285 m 551 264 l 1108 264 l 1108 0 l 41 0 l 41 253 l 597 727 l 73 727 l 73 992 l 1108 992 l 1108 739 "},"Ž":{"ha":1160,"x_min":0,"x_max":0,"o":"m 991 1285 l 809 1081 l 373 1081 l 191 1285 l 509 1285 l 587 1187 l 595 1187 l 673 1285 m 551 264 l 1108 264 l 1108 0 l 41 0 l 41 253 l 597 727 l 73 727 l 73 992 l 1108 992 l 1108 739 "},"Ż":{"ha":1160,"x_min":0,"x_max":0,"o":"m 431 1253 l 751 1253 l 751 1081 l 431 1081 m 551 264 l 1108 264 l 1108 0 l 41 0 l 41 253 l 597 727 l 73 727 l 73 992 l 1108 992 l 1108 739 "},"a":{"ha":1083,"x_min":0,"x_max":0,"o":"m 1024 121 b 1045 8 1024 78 1025 33 l 1045 0 l 737 0 b 715 74 724 13 715 42 l 715 102 b 363 -31 642 13 511 -31 b 34 218 201 -31 34 40 b 291 460 34 387 134 445 l 618 491 b 697 540 672 497 697 508 b 559 594 697 573 656 594 b 420 524 488 594 425 574 l 89 524 b 556 781 97 724 306 781 b 1024 541 829 781 1024 735 l 1024 121 m 710 349 b 634 329 693 338 660 333 l 452 300 b 360 221 394 290 360 270 b 473 150 360 168 406 150 b 710 325 570 150 710 197 "},"á":{"ha":1108,"x_min":0,"x_max":0,"o":"m 684 834 l 416 834 l 527 1040 l 949 1040 m 1024 121 b 1045 8 1024 78 1025 33 l 1045 0 l 737 0 b 715 74 724 13 715 42 l 715 102 b 363 -31 642 13 511 -31 b 34 218 201 -31 34 40 b 291 460 34 387 134 445 l 618 491 b 697 540 672 497 697 508 b 559 594 697 573 656 594 b 420 524 488 594 425 574 l 89 524 b 556 781 97 724 306 781 b 1024 541 829 781 1024 735 l 1024 121 m 710 349 b 634 329 693 338 660 333 l 452 300 b 360 221 394 290 360 270 b 473 150 360 168 406 150 b 710 325 570 150 710 197 "},"ă":{"ha":1108,"x_min":0,"x_max":0,"o":"m 887 1042 b 554 816 882 886 710 816 b 223 1042 399 816 227 886 l 468 1042 b 554 984 474 999 506 984 b 641 1042 603 984 635 999 l 887 1042 m 1024 121 b 1045 8 1024 78 1025 33 l 1045 0 l 737 0 b 715 74 724 13 715 42 l 715 102 b 363 -31 642 13 511 -31 b 34 218 201 -31 34 40 b 291 460 34 387 134 445 l 618 491 b 697 540 672 497 697 508 b 559 594 697 573 656 594 b 420 524 488 594 425 574 l 89 524 b 556 781 97 724 306 781 b 1024 541 829 781 1024 735 l 1024 121 m 710 349 b 634 329 693 338 660 333 l 452 300 b 360 221 394 290 360 270 b 473 150 360 168 406 150 b 710 325 570 150 710 197 "},"â":{"ha":1108,"x_min":0,"x_max":0,"o":"m 560 933 l 551 933 l 474 834 l 155 834 l 338 1038 l 774 1038 l 956 834 l 638 834 m 1024 121 b 1045 8 1024 78 1025 33 l 1045 0 l 737 0 b 715 74 724 13 715 42 l 715 102 b 363 -31 642 13 511 -31 b 34 218 201 -31 34 40 b 291 460 34 387 134 445 l 618 491 b 697 540 672 497 697 508 b 559 594 697 573 656 594 b 420 524 488 594 425 574 l 89 524 b 556 781 97 724 306 781 b 1024 541 829 781 1024 735 l 1024 121 m 710 349 b 634 329 693 338 660 333 l 452 300 b 360 221 394 290 360 270 b 473 150 360 168 406 150 b 710 325 570 150 710 197 "},"ä":{"ha":1108,"x_min":0,"x_max":0,"o":"m 206 1011 l 494 1011 l 494 839 l 206 839 m 617 1011 l 905 1011 l 905 839 l 617 839 m 1024 121 b 1045 8 1024 78 1025 33 l 1045 0 l 737 0 b 715 74 724 13 715 42 l 715 102 b 363 -31 642 13 511 -31 b 34 218 201 -31 34 40 b 291 460 34 387 134 445 l 618 491 b 697 540 672 497 697 508 b 559 594 697 573 656 594 b 420 524 488 594 425 574 l 89 524 b 556 781 97 724 306 781 b 1024 541 829 781 1024 735 l 1024 121 m 710 349 b 634 329 693 338 660 333 l 452 300 b 360 221 394 290 360 270 b 473 150 360 168 406 150 b 710 325 570 150 710 197 "},"à":{"ha":1108,"x_min":0,"x_max":0,"o":"m 583 1040 l 695 834 l 427 834 l 161 1040 m 1024 121 b 1045 8 1024 78 1025 33 l 1045 0 l 737 0 b 715 74 724 13 715 42 l 715 102 b 363 -31 642 13 511 -31 b 34 218 201 -31 34 40 b 291 460 34 387 134 445 l 618 491 b 697 540 672 497 697 508 b 559 594 697 573 656 594 b 420 524 488 594 425 574 l 89 524 b 556 781 97 724 306 781 b 1024 541 829 781 1024 735 l 1024 121 m 710 349 b 634 329 693 338 660 333 l 452 300 b 360 221 394 290 360 270 b 473 150 360 168 406 150 b 710 325 570 150 710 197 "},"ā":{"ha":1108,"x_min":0,"x_max":0,"o":"m 223 849 l 223 1019 l 888 1019 l 888 849 m 1024 121 b 1045 8 1024 78 1025 33 l 1045 0 l 737 0 b 715 74 724 13 715 42 l 715 102 b 363 -31 642 13 511 -31 b 34 218 201 -31 34 40 b 291 460 34 387 134 445 l 618 491 b 697 540 672 497 697 508 b 559 594 697 573 656 594 b 420 524 488 594 425 574 l 89 524 b 556 781 97 724 306 781 b 1024 541 829 781 1024 735 l 1024 121 m 710 349 b 634 329 693 338 660 333 l 452 300 b 360 221 394 290 360 270 b 473 150 360 168 406 150 b 710 325 570 150 710 197 "},"ą":{"ha":1083,"x_min":0,"x_max":0,"o":"m 1045 0 b 890 -131 948 -31 890 -88 b 963 -183 890 -169 924 -183 b 1045 -172 1002 -183 1026 -176 l 1045 -322 b 901 -335 1004 -332 962 -335 b 626 -180 713 -335 626 -276 b 799 0 626 -106 701 -36 l 737 0 b 715 74 724 13 715 42 l 715 102 b 363 -31 642 13 511 -31 b 34 218 201 -31 34 40 b 291 460 34 387 134 445 l 618 491 b 697 540 672 497 697 508 b 559 594 697 573 656 594 b 420 524 488 594 425 574 l 89 524 b 556 781 97 724 306 781 b 1024 541 829 781 1024 735 l 1024 121 b 1045 8 1024 78 1025 33 l 1045 0 m 710 349 b 634 329 693 338 660 333 l 452 300 b 360 221 394 290 360 270 b 473 150 360 168 406 150 b 710 325 570 150 710 197 "},"å":{"ha":1108,"x_min":0,"x_max":0,"o":"m 556 816 b 313 1007 421 816 313 888 b 556 1197 313 1125 421 1197 b 798 1007 690 1197 798 1125 b 556 816 798 888 690 816 m 556 941 b 634 1007 598 941 634 966 b 556 1073 634 1048 598 1073 b 477 1007 513 1073 477 1048 b 556 941 477 966 513 941 m 1024 121 b 1045 8 1024 78 1025 33 l 1045 0 l 737 0 b 715 74 724 13 715 42 l 715 102 b 363 -31 642 13 511 -31 b 34 218 201 -31 34 40 b 291 460 34 387 134 445 l 618 491 b 697 540 672 497 697 508 b 559 594 697 573 656 594 b 420 524 488 594 425 574 l 89 524 b 556 781 97 724 306 781 b 1024 541 829 781 1024 735 l 1024 121 m 710 349 b 634 329 693 338 660 333 l 452 300 b 360 221 394 290 360 270 b 473 150 360 168 406 150 b 710 325 570 150 710 197 "},"ã":{"ha":1108,"x_min":0,"x_max":0,"o":"m 705 809 b 438 874 612 809 494 874 b 393 824 402 874 395 859 l 188 824 b 405 1058 188 987 307 1058 b 674 994 499 1058 618 994 b 719 1043 710 994 717 1008 l 924 1043 b 705 809 924 880 802 809 m 1024 121 b 1045 8 1024 78 1025 33 l 1045 0 l 737 0 b 715 74 724 13 715 42 l 715 102 b 363 -31 642 13 511 -31 b 34 218 201 -31 34 40 b 291 460 34 387 134 445 l 618 491 b 697 540 672 497 697 508 b 559 594 697 573 656 594 b 420 524 488 594 425 574 l 89 524 b 556 781 97 724 306 781 b 1024 541 829 781 1024 735 l 1024 121 m 710 349 b 634 329 693 338 660 333 l 452 300 b 360 221 394 290 360 270 b 473 150 360 168 406 150 b 710 325 570 150 710 197 "},"æ":{"ha":1746,"x_min":0,"x_max":0,"o":"m 1708 375 b 1704 301 1708 356 1706 323 l 1011 301 b 1195 162 1024 206 1082 162 b 1361 233 1326 162 1354 218 l 1697 233 b 1195 -31 1690 105 1594 -31 b 829 103 1019 -31 885 16 b 418 -31 749 12 628 -31 b 34 218 201 -31 34 40 b 291 460 34 387 134 445 l 618 491 b 697 540 672 497 697 508 b 559 594 697 573 656 594 b 420 524 488 594 424 574 l 89 524 b 556 781 98 723 306 781 b 884 699 698 781 831 764 b 1196 781 943 753 1059 781 b 1708 375 1547 781 1708 631 m 1196 589 b 1018 480 1096 589 1039 554 l 1374 480 b 1196 589 1353 554 1296 589 m 710 349 b 634 329 693 338 660 333 l 452 300 b 360 221 394 290 360 270 b 473 150 360 168 406 150 b 710 325 570 150 710 197 "},"b":{"ha":1139,"x_min":0,"x_max":0,"o":"m 386 668 b 669 770 451 730 543 770 b 1101 369 932 770 1101 630 b 669 -31 1101 109 932 -31 b 380 81 543 -31 447 10 l 372 81 l 372 0 l 64 0 l 64 1006 l 377 1006 l 377 668 l 386 668 m 575 191 b 775 369 710 191 775 256 b 575 548 775 483 710 548 b 367 369 435 548 367 478 b 575 191 367 261 435 191 "},"c":{"ha":1125,"x_min":0,"x_max":0,"o":"m 556 191 b 743 297 693 191 736 248 l 1088 297 b 556 -31 1068 105 934 -31 b 37 375 206 -31 37 119 b 556 781 37 631 206 781 b 1086 458 934 781 1064 645 l 742 458 b 556 560 734 502 693 560 b 364 375 427 560 364 489 b 556 191 364 262 427 191 "},"ć":{"ha":1125,"x_min":0,"x_max":0,"o":"m 684 834 l 416 834 l 528 1040 l 950 1040 m 556 191 b 743 297 693 191 736 248 l 1088 297 b 556 -31 1068 105 934 -31 b 37 375 206 -31 37 119 b 556 781 37 631 206 781 b 1086 458 934 781 1064 645 l 742 458 b 556 560 734 502 693 560 b 364 375 427 560 364 489 b 556 191 364 262 427 191 "},"č":{"ha":1125,"x_min":0,"x_max":0,"o":"m 956 1038 l 774 834 l 338 834 l 156 1038 l 474 1038 l 552 940 l 560 940 l 638 1038 m 556 191 b 743 297 693 191 736 248 l 1088 297 b 556 -31 1068 105 934 -31 b 37 375 206 -31 37 119 b 556 781 37 631 206 781 b 1086 458 934 781 1064 645 l 742 458 b 556 560 734 502 693 560 b 364 375 427 560 364 489 b 556 191 364 262 427 191 "},"ç":{"ha":1125,"x_min":0,"x_max":0,"o":"m 1088 297 b 634 -28 1069 119 952 -10 l 601 -69 b 635 -66 608 -68 625 -66 b 850 -203 783 -66 850 -103 b 564 -353 850 -314 767 -353 b 355 -328 498 -353 433 -350 l 355 -214 l 363 -214 b 552 -244 441 -238 477 -244 b 634 -204 603 -244 634 -235 b 552 -165 634 -173 603 -165 b 438 -176 525 -165 466 -169 l 430 -176 l 430 -106 l 492 -30 b 37 375 185 -12 37 136 b 556 781 37 631 206 781 b 1086 458 934 781 1064 645 l 742 458 b 556 560 734 502 693 560 b 364 375 427 560 364 489 b 556 191 364 262 427 191 b 743 297 693 191 736 248 l 1088 297 "},"ĉ":{"ha":1125,"x_min":0,"x_max":0,"o":"m 560 933 l 552 933 l 474 834 l 156 834 l 338 1038 l 774 1038 l 956 834 l 638 834 m 556 191 b 743 297 693 191 736 248 l 1088 297 b 556 -31 1068 105 934 -31 b 37 375 206 -31 37 119 b 556 781 37 631 206 781 b 1086 458 934 781 1064 645 l 742 458 b 556 560 734 502 693 560 b 364 375 427 560 364 489 b 556 191 364 262 427 191 "},"ċ":{"ha":1125,"x_min":0,"x_max":0,"o":"m 396 1011 l 716 1011 l 716 839 l 396 839 m 556 191 b 743 297 693 191 736 248 l 1088 297 b 556 -31 1068 105 934 -31 b 37 375 206 -31 37 119 b 556 781 37 631 206 781 b 1086 458 934 781 1064 645 l 742 458 b 556 560 734 502 693 560 b 364 375 427 560 364 489 b 556 191 364 262 427 191 "},"d":{"ha":1139,"x_min":0,"x_max":0,"o":"m 761 668 l 761 1006 l 1075 1006 l 1075 0 l 767 0 l 767 81 l 758 81 b 469 -31 691 10 595 -31 b 37 369 206 -31 37 109 b 469 770 37 630 206 770 b 753 668 595 770 687 730 m 564 191 b 771 369 703 191 771 261 b 564 548 771 478 703 548 b 364 369 428 548 364 483 b 564 191 364 256 428 191 "},"ð":{"ha":1117,"x_min":0,"x_max":0,"o":"m 715 922 b 1080 433 997 803 1080 622 b 528 -32 1080 80 871 -32 b 37 318 277 -32 37 44 b 502 666 37 595 289 666 b 709 615 566 666 644 652 l 714 618 b 459 777 682 679 600 734 l 282 677 l 179 748 l 300 817 b 108 847 241 827 179 838 l 234 1036 b 573 972 364 1020 476 998 l 731 1061 l 834 990 l 715 922 m 553 187 b 741 318 669 187 741 225 b 553 447 741 410 669 447 b 364 318 436 447 364 410 b 553 187 364 225 436 187 "},"ď":{"ha":1413,"x_min":0,"x_max":0,"o":"m 761 668 l 761 1006 l 1075 1006 l 1075 0 l 767 0 l 767 81 l 758 81 b 469 -31 691 10 595 -31 b 37 369 206 -31 37 109 b 469 770 37 630 206 770 b 753 668 595 770 687 730 m 1396 885 b 1137 638 1396 713 1325 638 l 1137 732 b 1258 824 1230 732 1258 760 l 1137 824 l 1137 1006 l 1396 1006 m 564 191 b 771 369 703 191 771 261 b 564 548 771 478 703 548 b 364 369 428 548 364 483 b 564 191 364 256 428 191 "},"đ":{"ha":1169,"x_min":0,"x_max":0,"o":"m 1177 937 l 1177 796 l 1075 796 l 1075 0 l 767 0 l 767 81 l 758 81 b 469 -31 691 10 595 -31 b 37 369 206 -31 37 109 b 469 770 37 630 206 770 b 753 668 595 770 687 730 l 761 668 l 761 796 l 575 796 l 575 937 l 761 937 l 761 1006 l 1075 1006 l 1075 937 m 564 191 b 771 369 703 191 771 261 b 564 548 771 478 703 548 b 364 369 428 548 364 483 b 564 191 364 256 428 191 "},"e":{"ha":1126,"x_min":0,"x_max":0,"o":"m 1089 375 b 1085 301 1089 356 1088 323 l 366 301 b 563 162 380 206 442 162 b 742 233 701 162 733 218 l 1078 233 b 563 -31 1070 105 969 -31 b 37 375 206 -31 37 119 b 563 781 37 631 206 781 b 1089 375 921 781 1089 631 m 563 589 b 372 480 456 589 395 554 l 754 480 b 563 589 731 554 670 589 "},"é":{"ha":1126,"x_min":0,"x_max":0,"o":"m 692 834 l 424 834 l 535 1040 l 957 1040 m 1089 375 b 1085 301 1089 356 1088 323 l 366 301 b 563 162 380 206 442 162 b 742 233 701 162 733 218 l 1078 233 b 563 -31 1070 105 969 -31 b 37 375 206 -31 37 119 b 563 781 37 631 206 781 b 1089 375 921 781 1089 631 m 563 589 b 372 480 456 589 395 554 l 754 480 b 563 589 731 554 670 589 "},"ĕ":{"ha":1126,"x_min":0,"x_max":0,"o":"m 562 816 b 231 1042 406 816 235 886 l 476 1042 b 562 984 481 999 513 984 b 648 1042 611 984 643 999 l 895 1042 b 562 816 890 886 718 816 m 1089 375 b 1085 301 1089 356 1088 323 l 366 301 b 563 162 380 206 442 162 b 742 233 701 162 733 218 l 1078 233 b 563 -31 1070 105 969 -31 b 37 375 206 -31 37 119 b 563 781 37 631 206 781 b 1089 375 921 781 1089 631 m 563 589 b 372 480 456 589 395 554 l 754 480 b 563 589 731 554 670 589 "},"ě":{"ha":1126,"x_min":0,"x_max":0,"o":"m 345 834 l 163 1038 l 481 1038 l 559 940 l 567 940 l 645 1038 l 964 1038 l 781 834 m 1089 375 b 1085 301 1089 356 1088 323 l 366 301 b 563 162 380 206 442 162 b 742 233 701 162 733 218 l 1078 233 b 563 -31 1070 105 969 -31 b 37 375 206 -31 37 119 b 563 781 37 631 206 781 b 1089 375 921 781 1089 631 m 563 589 b 372 480 456 589 395 554 l 754 480 b 563 589 731 554 670 589 "},"ê":{"ha":1126,"x_min":0,"x_max":0,"o":"m 481 834 l 163 834 l 345 1038 l 781 1038 l 964 834 l 645 834 l 567 933 l 559 933 m 1089 375 b 1085 301 1089 356 1088 323 l 366 301 b 563 162 380 206 442 162 b 742 233 701 162 733 218 l 1078 233 b 563 -31 1070 105 969 -31 b 37 375 206 -31 37 119 b 563 781 37 631 206 781 b 1089 375 921 781 1089 631 m 563 589 b 372 480 456 589 395 554 l 754 480 b 563 589 731 554 670 589 "},"ë":{"ha":1126,"x_min":0,"x_max":0,"o":"m 502 839 l 214 839 l 214 1011 l 502 1011 m 913 839 l 624 839 l 624 1011 l 913 1011 m 1089 375 b 1085 301 1089 356 1088 323 l 366 301 b 563 162 380 206 442 162 b 742 233 701 162 733 218 l 1078 233 b 563 -31 1070 105 969 -31 b 37 375 206 -31 37 119 b 563 781 37 631 206 781 b 1089 375 921 781 1089 631 m 563 589 b 372 480 456 589 395 554 l 754 480 b 563 589 731 554 670 589 "},"ė":{"ha":1126,"x_min":0,"x_max":0,"o":"m 723 839 l 403 839 l 403 1011 l 723 1011 m 1089 375 b 1085 301 1089 356 1088 323 l 366 301 b 563 162 380 206 442 162 b 742 233 701 162 733 218 l 1078 233 b 563 -31 1070 105 969 -31 b 37 375 206 -31 37 119 b 563 781 37 631 206 781 b 1089 375 921 781 1089 631 m 563 589 b 372 480 456 589 395 554 l 754 480 b 563 589 731 554 670 589 "},"è":{"ha":1126,"x_min":0,"x_max":0,"o":"m 434 834 l 169 1040 l 591 1040 l 702 834 m 1089 375 b 1085 301 1089 356 1088 323 l 366 301 b 563 162 380 206 442 162 b 742 233 701 162 733 218 l 1078 233 b 563 -31 1070 105 969 -31 b 37 375 206 -31 37 119 b 563 781 37 631 206 781 b 1089 375 921 781 1089 631 m 563 589 b 372 480 456 589 395 554 l 754 480 b 563 589 731 554 670 589 "},"ē":{"ha":1126,"x_min":0,"x_max":0,"o":"m 896 849 l 231 849 l 231 1019 l 896 1019 m 1089 375 b 1085 301 1089 356 1088 323 l 366 301 b 563 162 380 206 442 162 b 742 233 701 162 733 218 l 1078 233 b 563 -31 1070 105 969 -31 b 37 375 206 -31 37 119 b 563 781 37 631 206 781 b 1089 375 921 781 1089 631 m 563 589 b 372 480 456 589 395 554 l 754 480 b 563 589 731 554 670 589 "},"ę":{"ha":1126,"x_min":0,"x_max":0,"o":"m 1089 375 b 1085 301 1089 356 1088 323 l 366 301 b 563 162 380 206 442 162 b 742 233 701 162 733 218 l 1078 233 b 832 -4 1072 141 1017 43 b 685 -131 740 -35 685 -89 b 746 -183 685 -169 719 -183 b 841 -172 798 -183 822 -176 l 841 -322 b 697 -335 799 -332 758 -335 b 422 -180 509 -335 422 -276 b 530 -31 422 -123 466 -70 b 37 375 194 -21 37 128 b 563 781 37 631 206 781 b 1089 375 921 781 1089 631 m 563 589 b 372 480 456 589 395 554 l 754 480 b 563 589 731 554 670 589 "},"f":{"ha":688,"x_min":0,"x_max":0,"o":"m 583 840 b 455 750 473 840 444 821 l 648 750 l 648 569 l 455 569 l 455 0 l 141 0 l 141 569 l 18 569 l 18 750 l 141 750 l 141 802 b 515 1046 141 995 277 1046 b 665 1037 601 1046 648 1037 l 665 836 b 583 840 647 838 626 840 "},"g":{"ha":1125,"x_min":0,"x_max":0,"o":"m 1061 750 l 1061 46 b 560 -272 1061 -150 997 -272 b 57 0 137 -272 69 -136 l 398 0 b 560 -79 403 -35 425 -79 b 747 46 722 -79 747 -35 l 747 160 l 739 160 b 459 61 680 97 581 61 b 37 415 202 61 37 180 b 459 770 37 651 202 770 b 745 664 581 770 683 733 l 753 664 l 753 750 m 555 276 b 754 415 692 276 754 332 b 555 555 754 499 692 555 b 364 415 426 555 364 502 b 555 276 364 329 426 276 "},"ğ":{"ha":1125,"x_min":0,"x_max":0,"o":"m 881 1042 b 548 816 876 886 704 816 b 217 1042 393 816 221 886 l 462 1042 b 548 984 467 999 499 984 b 635 1042 597 984 629 999 l 881 1042 m 1061 750 l 1061 46 b 560 -272 1061 -150 997 -272 b 57 0 137 -272 69 -136 l 398 0 b 560 -79 403 -35 425 -79 b 747 46 722 -79 747 -35 l 747 160 l 739 160 b 459 61 680 97 581 61 b 37 415 202 61 37 180 b 459 770 37 651 202 770 b 745 664 581 770 683 733 l 753 664 l 753 750 m 555 276 b 754 415 692 276 754 332 b 555 555 754 499 692 555 b 364 415 426 555 364 502 b 555 276 364 329 426 276 "},"ĝ":{"ha":1125,"x_min":0,"x_max":0,"o":"m 553 933 l 545 933 l 467 834 l 149 834 l 331 1038 l 767 1038 l 950 834 l 631 834 m 1061 750 l 1061 46 b 560 -272 1061 -150 997 -272 b 57 0 137 -272 69 -136 l 398 0 b 560 -79 403 -35 425 -79 b 747 46 722 -79 747 -35 l 747 160 l 739 160 b 459 61 680 97 581 61 b 37 415 202 61 37 180 b 459 770 37 651 202 770 b 745 664 581 770 683 733 l 753 664 l 753 750 m 555 276 b 754 415 692 276 754 332 b 555 555 754 499 692 555 b 364 415 426 555 364 502 b 555 276 364 329 426 276 "},"ģ":{"ha":1125,"x_min":0,"x_max":0,"o":"m 390 948 b 709 1193 390 1141 483 1193 l 709 1113 b 568 1011 598 1113 568 1071 l 709 1011 l 709 839 l 390 839 m 1061 750 l 1061 46 b 560 -272 1061 -150 997 -272 b 57 0 137 -272 69 -136 l 398 0 b 560 -79 403 -35 425 -79 b 747 46 722 -79 747 -35 l 747 160 l 739 160 b 459 61 680 97 581 61 b 37 415 202 61 37 180 b 459 770 37 651 202 770 b 745 664 581 770 683 733 l 753 664 l 753 750 m 555 276 b 754 415 692 276 754 332 b 555 555 754 499 692 555 b 364 415 426 555 364 502 b 555 276 364 329 426 276 "},"ġ":{"ha":1125,"x_min":0,"x_max":0,"o":"m 390 1011 l 709 1011 l 709 839 l 390 839 m 1061 750 l 1061 46 b 560 -272 1061 -150 997 -272 b 57 0 137 -272 69 -136 l 398 0 b 560 -79 403 -35 425 -79 b 747 46 722 -79 747 -35 l 747 160 l 739 160 b 459 61 680 97 581 61 b 37 415 202 61 37 180 b 459 770 37 651 202 770 b 745 664 581 770 683 733 l 753 664 l 753 750 m 555 276 b 754 415 692 276 754 332 b 555 555 754 499 692 555 b 364 415 426 555 364 502 b 555 276 364 329 426 276 "},"h":{"ha":1107,"x_min":0,"x_max":0,"o":"m 708 770 b 1043 477 904 770 1043 679 l 1043 0 l 729 0 l 729 381 b 572 525 729 483 668 525 b 377 337 482 525 377 486 l 377 0 l 64 0 l 64 1006 l 377 1006 l 377 657 l 386 657 b 708 770 468 734 571 770 "},"ħ":{"ha":1139,"x_min":0,"x_max":0,"o":"m 740 770 b 1075 477 936 770 1075 679 l 1075 0 l 761 0 l 761 381 b 605 525 761 483 701 525 b 410 337 515 525 410 486 l 410 0 l 96 0 l 96 796 l -6 796 l -6 937 l 96 937 l 96 1006 l 410 1006 l 410 937 l 596 937 l 596 796 l 410 796 l 410 657 l 418 657 b 740 770 501 734 603 770 "},"ĥ":{"ha":1107,"x_min":0,"x_max":0,"o":"m 225 1178 l 216 1178 l 139 1080 l -180 1080 l 2 1284 l 439 1284 l 621 1080 l 302 1080 m 708 770 b 1043 477 904 770 1043 679 l 1043 0 l 729 0 l 729 381 b 572 525 729 483 668 525 b 377 337 482 525 377 486 l 377 0 l 64 0 l 64 1006 l 377 1006 l 377 657 l 386 657 b 708 770 468 734 571 770 "},"i":{"ha":442,"x_min":0,"x_max":0,"o":"m 61 1011 l 380 1011 l 380 839 l 61 839 m 64 750 l 377 750 l 377 0 l 64 0 "},"ı":{"ha":442,"x_min":0,"x_max":0,"o":"m 64 750 l 377 750 l 377 0 l 64 0 "},"í":{"ha":442,"x_min":0,"x_max":0,"o":"m 349 834 l 81 834 l 192 1040 l 614 1040 m 64 750 l 377 750 l 377 0 l 64 0 "},"ĭ":{"ha":442,"x_min":0,"x_max":0,"o":"m 552 1042 b 219 816 547 886 375 816 b -112 1042 64 816 -108 886 l 133 1042 b 219 984 139 999 171 984 b 306 1042 268 984 300 999 l 552 1042 m 64 750 l 377 750 l 377 0 l 64 0 "},"î":{"ha":442,"x_min":0,"x_max":0,"o":"m 225 933 l 216 933 l 139 834 l -180 834 l 2 1038 l 439 1038 l 621 834 l 302 834 m 64 750 l 377 750 l 377 0 l 64 0 "},"ï":{"ha":442,"x_min":0,"x_max":0,"o":"m -129 1011 l 159 1011 l 159 839 l -129 839 m 282 1011 l 570 1011 l 570 839 l 282 839 m 64 750 l 377 750 l 377 0 l 64 0 "},"ì":{"ha":442,"x_min":0,"x_max":0,"o":"m 248 1040 l 360 834 l 91 834 l -174 1040 m 64 750 l 377 750 l 377 0 l 64 0 "},"ĳ":{"ha":882,"x_min":0,"x_max":0,"o":"m 61 1011 l 380 1011 l 380 839 l 61 839 m 502 1011 l 821 1011 l 821 839 l 502 839 m 64 750 l 377 750 l 377 0 l 64 0 m 448 -27 b 505 35 482 -27 505 -16 l 505 750 l 818 750 l 818 -46 b 504 -272 818 -225 745 -272 b 384 -267 458 -272 422 -271 l 384 -25 b 448 -27 396 -25 420 -27 "},"ī":{"ha":442,"x_min":0,"x_max":0,"o":"m -112 849 l -112 1019 l 553 1019 l 553 849 m 64 750 l 377 750 l 377 0 l 64 0 "},"į":{"ha":442,"x_min":0,"x_max":0,"o":"m 380 1011 l 380 839 l 61 839 l 61 1011 m 64 750 l 377 750 l 377 0 b 222 -131 280 -31 222 -88 b 295 -183 222 -169 256 -183 b 377 -172 334 -183 358 -176 l 377 -322 b 233 -335 336 -332 294 -335 b -42 -180 45 -335 -42 -276 b 131 0 -42 -106 33 -36 l 64 0 "},"ĩ":{"ha":442,"x_min":0,"x_max":0,"o":"m 369 809 b 103 874 277 809 159 874 b 58 824 67 874 60 859 l -147 824 b 70 1058 -147 987 -28 1058 b 339 994 164 1058 283 994 b 384 1043 375 994 382 1008 l 589 1043 b 369 809 589 880 467 809 m 64 750 l 377 750 l 377 0 l 64 0 "},"j":{"ha":442,"x_min":0,"x_max":0,"o":"m 61 1011 l 380 1011 l 380 839 l 61 839 m 7 -27 b 64 35 41 -27 64 -16 l 64 750 l 377 750 l 377 -46 b 63 -272 377 -225 304 -272 b -57 -267 18 -272 -19 -271 l -57 -25 b 7 -27 -45 -25 -21 -27 "},"ȷ":{"ha":442,"x_min":0,"x_max":0,"o":"m 7 -27 b 64 35 41 -27 64 -16 l 64 750 l 377 750 l 377 -46 b 63 -272 377 -225 304 -272 b -57 -267 18 -272 -19 -271 l -57 -25 b 7 -27 -45 -25 -21 -27 "},"ĵ":{"ha":804,"x_min":0,"x_max":0,"o":"m 347 933 l 339 933 l 261 834 l -57 834 l 125 1038 l 561 1038 l 743 834 l 425 834 m 130 -27 b 186 35 163 -27 186 -16 l 186 750 l 500 750 l 500 -46 b 186 -272 500 -225 427 -272 b 65 -267 140 -272 103 -271 l 65 -25 b 130 -27 77 -25 102 -27 "},"k":{"ha":1043,"x_min":0,"x_max":0,"o":"m 1045 0 l 672 0 l 471 272 l 377 189 l 377 0 l 64 0 l 64 1006 l 377 1006 l 377 496 l 651 750 l 1011 750 l 678 456 "},"ķ":{"ha":1043,"x_min":0,"x_max":0,"o":"m 1045 0 l 672 0 l 471 272 l 377 189 l 377 0 l 64 0 l 64 1006 l 377 1006 l 377 496 l 651 750 l 1011 750 l 678 456 m 685 -214 b 365 -406 685 -349 663 -406 l 365 -326 b 506 -257 499 -326 506 -295 l 365 -257 l 365 -85 l 685 -85 "},"ĸ":{"ha":1043,"x_min":0,"x_max":0,"o":"m 1045 0 l 672 0 l 471 272 l 377 189 l 377 0 l 64 0 l 64 750 l 377 750 l 377 496 l 651 750 l 1011 750 l 678 456 "},"l":{"ha":442,"x_min":0,"x_max":0,"o":"m 64 1006 l 377 1006 l 377 0 l 64 0 "},"ĺ":{"ha":692,"x_min":0,"x_max":0,"o":"m 363 1080 l 95 1080 l 206 1285 l 628 1285 m 64 1006 l 377 1006 l 377 0 l 64 0 "},"ľ":{"ha":715,"x_min":0,"x_max":0,"o":"m 64 1006 l 377 1006 l 377 0 l 64 0 m 698 885 b 439 638 698 713 627 638 l 439 732 b 560 824 532 732 560 760 l 439 824 l 439 1006 l 698 1006 "},"ļ":{"ha":447,"x_min":0,"x_max":0,"o":"m 66 1006 l 380 1006 l 380 0 l 66 0 m 383 -214 b 64 -406 383 -349 361 -406 l 64 -326 b 204 -257 198 -326 204 -295 l 64 -257 l 64 -85 l 383 -85 "},"ŀ":{"ha":829,"x_min":0,"x_max":0,"o":"m 64 1006 l 377 1006 l 377 0 l 64 0 m 619 327 b 445 501 522 327 445 404 b 619 674 445 597 522 674 b 792 501 715 674 792 597 b 619 327 792 404 715 327 "},"ł":{"ha":560,"x_min":0,"x_max":0,"o":"m 534 555 l 436 515 l 436 0 l 123 0 l 123 389 l 25 350 l 25 551 l 123 590 l 123 1006 l 436 1006 l 436 716 l 534 756 "},"m":{"ha":1678,"x_min":0,"x_max":0,"o":"m 372 652 l 380 652 b 690 770 450 735 576 770 b 965 650 813 770 913 744 b 1300 770 1046 736 1171 770 b 1614 477 1477 770 1614 679 l 1614 0 l 1300 0 l 1300 401 b 1164 525 1300 489 1247 525 b 995 363 1087 525 995 492 l 995 0 l 682 0 l 682 401 b 546 525 682 489 629 525 b 377 363 469 525 377 492 l 377 0 l 64 0 l 64 750 l 372 750 "},"n":{"ha":1107,"x_min":0,"x_max":0,"o":"m 372 657 l 380 657 b 708 770 468 734 571 770 b 1043 477 904 770 1043 679 l 1043 0 l 729 0 l 729 381 b 572 525 729 483 668 525 b 377 337 482 525 377 486 l 377 0 l 64 0 l 64 750 l 372 750 "},"ń":{"ha":1107,"x_min":0,"x_max":0,"o":"m 682 834 l 414 834 l 525 1040 l 947 1040 m 372 657 l 380 657 b 708 770 468 734 571 770 b 1043 477 904 770 1043 679 l 1043 0 l 729 0 l 729 381 b 572 525 729 483 668 525 b 377 337 482 525 377 486 l 377 0 l 64 0 l 64 750 l 372 750 "},"ŉ":{"ha":1393,"x_min":0,"x_max":0,"o":"m 299 885 b 40 638 299 713 228 638 l 40 732 b 161 824 133 732 161 760 l 40 824 l 40 1006 l 299 1006 m 658 657 l 666 657 b 994 770 754 734 857 770 b 1329 477 1190 770 1329 679 l 1329 0 l 1015 0 l 1015 381 b 858 525 1015 483 954 525 b 663 337 768 525 663 486 l 663 0 l 349 0 l 349 750 l 658 750 "},"ň":{"ha":1107,"x_min":0,"x_max":0,"o":"m 954 1038 l 771 834 l 335 834 l 153 1038 l 471 1038 l 549 940 l 557 940 l 635 1038 m 372 657 l 380 657 b 708 770 468 734 571 770 b 1043 477 904 770 1043 679 l 1043 0 l 729 0 l 729 381 b 572 525 729 483 668 525 b 377 337 482 525 377 486 l 377 0 l 64 0 l 64 750 l 372 750 "},"ņ":{"ha":1107,"x_min":0,"x_max":0,"o":"m 372 657 l 380 657 b 708 770 468 734 571 770 b 1043 477 904 770 1043 679 l 1043 0 l 729 0 l 729 381 b 572 525 729 483 668 525 b 377 337 482 525 377 486 l 377 0 l 64 0 l 64 750 l 372 750 m 713 -214 b 394 -406 713 -349 691 -406 l 394 -326 b 534 -257 528 -326 534 -295 l 394 -257 l 394 -85 l 713 -85 "},"ŋ":{"ha":1107,"x_min":0,"x_max":0,"o":"m 708 770 b 1043 477 904 770 1043 679 l 1043 -46 b 729 -272 1043 -225 970 -272 b 608 -267 683 -272 646 -271 l 608 -25 b 673 -27 620 -25 645 -27 b 729 35 706 -27 729 -16 l 729 381 b 572 525 729 483 668 525 b 377 337 482 525 377 486 l 377 0 l 64 0 l 64 750 l 372 750 l 372 657 l 380 657 b 708 770 468 734 571 770 "},"ñ":{"ha":1107,"x_min":0,"x_max":0,"o":"m 702 809 b 436 874 610 809 492 874 b 391 824 400 874 393 859 l 186 824 b 403 1058 186 987 305 1058 b 672 994 496 1058 616 994 b 717 1043 708 994 715 1008 l 922 1043 b 702 809 922 880 800 809 m 372 657 l 380 657 b 708 770 468 734 571 770 b 1043 477 904 770 1043 679 l 1043 0 l 729 0 l 729 381 b 572 525 729 483 668 525 b 377 337 482 525 377 486 l 377 0 l 64 0 l 64 750 l 372 750 "},"o":{"ha":1126,"x_min":0,"x_max":0,"o":"m 563 781 b 1089 375 921 781 1089 631 b 563 -31 1089 119 921 -31 b 37 375 206 -31 37 119 b 563 781 37 631 206 781 m 563 191 b 763 375 700 191 763 262 b 563 560 763 489 700 560 b 364 375 427 560 364 489 b 563 191 364 262 427 191 "},"ó":{"ha":1126,"x_min":0,"x_max":0,"o":"m 692 834 l 424 834 l 535 1040 l 957 1040 m 563 781 b 1089 375 921 781 1089 631 b 563 -31 1089 119 921 -31 b 37 375 206 -31 37 119 b 563 781 37 631 206 781 m 563 191 b 763 375 700 191 763 262 b 563 560 763 489 700 560 b 364 375 427 560 364 489 b 563 191 364 262 427 191 "},"ŏ":{"ha":1126,"x_min":0,"x_max":0,"o":"m 895 1042 b 562 816 890 886 718 816 b 231 1042 406 816 235 886 l 476 1042 b 562 984 481 999 513 984 b 648 1042 611 984 643 999 l 895 1042 m 563 781 b 1089 375 921 781 1089 631 b 563 -31 1089 119 921 -31 b 37 375 206 -31 37 119 b 563 781 37 631 206 781 m 563 191 b 763 375 700 191 763 262 b 563 560 763 489 700 560 b 364 375 427 560 364 489 b 563 191 364 262 427 191 "},"ô":{"ha":1126,"x_min":0,"x_max":0,"o":"m 567 933 l 559 933 l 481 834 l 163 834 l 345 1038 l 781 1038 l 964 834 l 645 834 m 563 781 b 1089 375 921 781 1089 631 b 563 -31 1089 119 921 -31 b 37 375 206 -31 37 119 b 563 781 37 631 206 781 m 563 191 b 763 375 700 191 763 262 b 563 560 763 489 700 560 b 364 375 427 560 364 489 b 563 191 364 262 427 191 "},"ö":{"ha":1126,"x_min":0,"x_max":0,"o":"m 214 1011 l 502 1011 l 502 839 l 214 839 m 624 1011 l 913 1011 l 913 839 l 624 839 m 563 781 b 1089 375 921 781 1089 631 b 563 -31 1089 119 921 -31 b 37 375 206 -31 37 119 b 563 781 37 631 206 781 m 563 191 b 763 375 700 191 763 262 b 563 560 763 489 700 560 b 364 375 427 560 364 489 b 563 191 364 262 427 191 "},"ò":{"ha":1126,"x_min":0,"x_max":0,"o":"m 591 1040 l 702 834 l 434 834 l 169 1040 m 563 781 b 1089 375 921 781 1089 631 b 563 -31 1089 119 921 -31 b 37 375 206 -31 37 119 b 563 781 37 631 206 781 m 563 191 b 763 375 700 191 763 262 b 563 560 763 489 700 560 b 364 375 427 560 364 489 b 563 191 364 262 427 191 "},"ő":{"ha":1126,"x_min":0,"x_max":0,"o":"m 487 834 l 236 834 l 339 1040 l 668 1040 m 889 834 l 638 834 l 741 1040 l 1070 1040 m 563 781 b 1089 375 921 781 1089 631 b 563 -31 1089 119 921 -31 b 37 375 206 -31 37 119 b 563 781 37 631 206 781 m 563 191 b 763 375 700 191 763 262 b 563 560 763 489 700 560 b 364 375 427 560 364 489 b 563 191 364 262 427 191 "},"ō":{"ha":1126,"x_min":0,"x_max":0,"o":"m 231 849 l 231 1019 l 896 1019 l 896 849 m 563 781 b 1089 375 921 781 1089 631 b 563 -31 1089 119 921 -31 b 37 375 206 -31 37 119 b 563 781 37 631 206 781 m 563 191 b 763 375 700 191 763 262 b 563 560 763 489 700 560 b 364 375 427 560 364 489 b 563 191 364 262 427 191 "},"ø":{"ha":1126,"x_min":0,"x_max":0,"o":"m 986 652 b 1089 375 1055 584 1089 490 b 563 -31 1089 119 921 -31 b 225 37 421 -31 309 -7 l 141 -30 l 55 29 l 141 99 b 37 375 71 167 37 260 b 563 781 37 631 206 781 b 901 713 705 781 818 758 l 985 781 l 1072 722 l 985 652 m 364 375 b 379 291 364 344 369 315 l 680 535 b 563 560 650 551 611 560 b 364 375 427 560 364 489 m 563 191 b 763 375 700 191 763 262 b 748 460 763 407 758 435 l 446 216 b 563 191 476 200 515 191 "},"ǿ":{"ha":1126,"x_min":0,"x_max":0,"o":"m 692 834 l 424 834 l 535 1040 l 957 1040 m 986 652 b 1089 375 1055 584 1089 490 b 563 -31 1089 119 921 -31 b 225 37 421 -31 309 -7 l 141 -30 l 55 29 l 141 99 b 37 375 71 167 37 260 b 563 781 37 631 206 781 b 901 713 705 781 818 758 l 985 781 l 1072 722 l 985 652 m 364 375 b 379 291 364 344 369 315 l 680 535 b 563 560 650 551 611 560 b 364 375 427 560 364 489 m 563 191 b 763 375 700 191 763 262 b 748 460 763 407 758 435 l 446 216 b 563 191 476 200 515 191 "},"õ":{"ha":1126,"x_min":0,"x_max":0,"o":"m 712 809 b 446 874 620 809 502 874 b 401 824 410 874 403 859 l 196 824 b 413 1058 196 987 315 1058 b 682 994 506 1058 626 994 b 727 1043 718 994 725 1008 l 931 1043 b 712 809 931 880 810 809 m 563 781 b 1089 375 921 781 1089 631 b 563 -31 1089 119 921 -31 b 37 375 206 -31 37 119 b 563 781 37 631 206 781 m 563 191 b 763 375 700 191 763 262 b 563 560 763 489 700 560 b 364 375 427 560 364 489 b 563 191 364 262 427 191 "},"œ":{"ha":1771,"x_min":0,"x_max":0,"o":"m 1733 375 b 1729 301 1733 356 1732 323 l 1036 301 b 1220 162 1049 206 1107 162 b 1386 233 1351 162 1379 218 l 1722 233 b 1220 -31 1715 105 1620 -31 b 886 63 1076 -31 964 2 b 549 -31 807 2 694 -31 b 37 375 199 -31 37 119 b 549 781 37 631 199 781 b 886 688 694 781 807 749 b 1221 781 964 749 1077 781 b 1733 375 1572 781 1733 631 m 1221 589 b 1043 480 1121 589 1064 554 l 1399 480 b 1221 589 1378 554 1321 589 m 549 191 b 735 375 677 191 735 262 b 549 560 735 489 677 560 b 364 375 421 560 364 489 b 549 191 364 262 421 191 "},"p":{"ha":1139,"x_min":0,"x_max":0,"o":"m 377 70 l 377 -253 l 64 -253 l 64 750 l 372 750 l 372 658 l 380 658 b 669 770 447 729 543 770 b 1101 369 932 770 1101 630 b 669 -31 1101 109 932 -31 b 386 70 543 -31 451 9 m 575 548 b 367 369 435 548 367 478 b 575 191 367 261 435 191 b 775 369 710 191 775 256 b 575 548 775 483 710 548 "},"þ":{"ha":1139,"x_min":0,"x_max":0,"o":"m 377 70 l 377 -253 l 64 -253 l 64 1006 l 377 1006 l 377 668 l 386 668 b 669 770 451 730 543 770 b 1101 369 932 770 1101 630 b 669 -31 1101 109 932 -31 b 386 70 543 -31 451 9 m 575 548 b 367 369 435 548 367 478 b 575 191 367 261 435 191 b 775 369 710 191 775 256 b 575 548 775 483 710 548 "},"q":{"ha":1139,"x_min":0,"x_max":0,"o":"m 753 70 b 469 -31 687 9 595 -31 b 37 369 206 -31 37 109 b 469 770 37 630 206 770 b 758 658 595 770 691 729 l 767 658 l 767 750 l 1075 750 l 1075 -253 l 761 -253 l 761 70 l 753 70 m 564 548 b 364 369 428 548 364 483 b 564 191 364 256 428 191 b 771 369 703 191 771 261 b 564 548 771 478 703 548 "},"r":{"ha":806,"x_min":0,"x_max":0,"o":"m 372 750 l 372 650 l 380 650 b 719 770 460 736 568 770 b 777 765 739 770 761 768 l 777 466 b 643 481 741 474 686 481 b 377 270 510 481 377 448 l 377 0 l 64 0 l 64 750 "},"ŕ":{"ha":843,"x_min":0,"x_max":0,"o":"m 549 834 l 281 834 l 393 1040 l 815 1040 m 372 750 l 372 650 l 380 650 b 719 770 460 736 568 770 b 777 765 739 770 761 768 l 777 466 b 643 481 741 474 686 481 b 377 270 510 481 377 448 l 377 0 l 64 0 l 64 750 "},"ř":{"ha":893,"x_min":0,"x_max":0,"o":"m 864 1038 l 682 834 l 246 834 l 64 1038 l 382 1038 l 460 940 l 468 940 l 546 1038 m 415 750 l 415 650 l 423 650 b 762 770 503 736 611 770 b 820 765 782 770 804 768 l 820 466 b 686 481 784 474 730 481 b 420 270 553 481 420 448 l 420 0 l 107 0 l 107 750 "},"ŗ":{"ha":808,"x_min":0,"x_max":0,"o":"m 374 750 l 374 650 l 383 650 b 721 770 463 736 571 770 b 780 765 742 770 764 768 l 780 466 b 645 481 744 474 689 481 b 380 270 513 481 380 448 l 380 0 l 66 0 l 66 750 m 383 -214 b 64 -406 383 -349 361 -406 l 64 -326 b 204 -257 198 -326 204 -295 l 64 -257 l 64 -85 l 383 -85 "},"s":{"ha":1081,"x_min":0,"x_max":0,"o":"m 680 530 b 511 600 674 583 607 600 b 379 549 416 600 379 578 b 457 504 379 520 397 510 l 747 472 b 1043 229 945 451 1043 398 b 532 -31 1043 20 861 -31 b 21 238 234 -31 31 15 l 366 238 b 539 154 372 173 420 154 b 696 211 665 154 696 179 b 612 263 696 244 673 255 l 348 296 b 43 530 154 320 43 371 b 514 781 43 731 245 781 b 1013 530 794 781 1005 726 l 680 530 "},"ś":{"ha":1081,"x_min":0,"x_max":0,"o":"m 643 834 l 375 834 l 486 1040 l 908 1040 m 680 530 b 511 600 674 583 607 600 b 379 549 416 600 379 578 b 457 504 379 520 397 510 l 747 472 b 1043 229 945 451 1043 398 b 532 -31 1043 20 861 -31 b 21 238 234 -31 31 15 l 366 238 b 539 154 372 173 420 154 b 696 211 665 154 696 179 b 612 263 696 244 673 255 l 348 296 b 43 530 154 320 43 371 b 514 781 43 731 245 781 b 1013 530 794 781 1005 726 l 680 530 "},"š":{"ha":1081,"x_min":0,"x_max":0,"o":"m 915 1038 l 732 834 l 296 834 l 114 1038 l 432 1038 l 510 940 l 519 940 l 596 1038 m 680 530 b 511 600 674 583 607 600 b 379 549 416 600 379 578 b 457 504 379 520 397 510 l 747 472 b 1043 229 945 451 1043 398 b 532 -31 1043 20 861 -31 b 21 238 234 -31 31 15 l 366 238 b 539 154 372 173 420 154 b 696 211 665 154 696 179 b 612 263 696 244 673 255 l 348 296 b 43 530 154 320 43 371 b 514 781 43 731 245 781 b 1013 530 794 781 1005 726 l 680 530 "},"ş":{"ha":1081,"x_min":0,"x_max":0,"o":"m 1043 229 b 610 -30 1043 36 889 -22 l 578 -69 b 613 -66 585 -68 602 -66 b 827 -203 760 -66 827 -103 b 541 -353 827 -314 744 -353 b 332 -328 475 -353 410 -350 l 332 -214 l 340 -214 b 530 -244 419 -238 455 -244 b 611 -204 580 -244 611 -235 b 530 -165 611 -173 580 -165 b 415 -176 502 -165 443 -169 l 407 -176 l 407 -106 l 469 -30 b 21 238 206 -23 30 31 l 366 238 b 539 154 372 173 420 154 b 696 211 665 154 696 179 b 612 263 696 244 673 255 l 348 296 b 43 530 154 320 43 371 b 514 781 43 731 245 781 b 1013 530 794 781 1005 726 l 680 530 b 511 600 674 583 607 600 b 379 549 416 600 379 578 b 457 504 379 520 397 510 l 747 472 b 1043 229 945 451 1043 398 "},"ŝ":{"ha":1081,"x_min":0,"x_max":0,"o":"m 519 933 l 510 933 l 432 834 l 114 834 l 296 1038 l 732 1038 l 915 834 l 596 834 m 680 530 b 511 600 674 583 607 600 b 379 549 416 600 379 578 b 457 504 379 520 397 510 l 747 472 b 1043 229 945 451 1043 398 b 532 -31 1043 20 861 -31 b 21 238 234 -31 31 15 l 366 238 b 539 154 372 173 420 154 b 696 211 665 154 696 179 b 612 263 696 244 673 255 l 348 296 b 43 530 154 320 43 371 b 514 781 43 731 245 781 b 1013 530 794 781 1005 726 l 680 530 "},"ș":{"ha":1081,"x_min":0,"x_max":0,"o":"m 680 530 b 511 600 674 583 607 600 b 379 549 416 600 379 578 b 457 504 379 520 397 510 l 747 472 b 1043 229 945 451 1043 398 b 532 -31 1043 20 861 -31 b 21 238 234 -31 31 15 l 366 238 b 539 154 372 173 420 154 b 696 211 665 154 696 179 b 612 263 696 244 673 255 l 348 296 b 43 530 154 320 43 371 b 514 781 43 731 245 781 b 1013 530 794 781 1005 726 l 680 530 m 692 -214 b 372 -406 692 -349 670 -406 l 372 -326 b 513 -257 507 -326 513 -295 l 372 -257 l 372 -85 l 692 -85 "},"ß":{"ha":1188,"x_min":0,"x_max":0,"o":"m 912 575 b 1149 314 1080 561 1149 460 b 662 -22 1149 94 1037 -22 b 481 -3 591 -22 516 -15 l 481 222 b 643 203 519 212 572 203 b 823 327 733 203 823 241 b 609 445 823 412 744 445 l 481 445 l 481 627 l 597 627 b 740 718 679 627 740 657 b 581 798 740 778 679 798 b 379 627 484 798 379 778 l 379 0 l 64 0 l 64 636 b 581 1024 64 918 221 1024 b 1066 764 962 1024 1066 918 b 912 583 1066 644 995 600 "},"t":{"ha":682,"x_min":0,"x_max":0,"o":"m 538 233 b 639 236 564 233 601 233 l 639 0 b 455 -12 605 -4 524 -12 b 132 232 208 -12 132 51 l 132 569 l 8 569 l 8 750 l 132 750 l 132 953 l 446 953 l 446 750 l 639 750 l 639 569 l 446 569 l 446 291 b 538 233 446 245 479 233 "},"ŧ":{"ha":682,"x_min":0,"x_max":0,"o":"m 446 569 l 446 494 l 639 494 l 639 357 l 446 357 l 446 291 b 538 233 446 245 479 233 b 639 236 564 233 601 233 l 639 0 b 455 -12 605 -4 524 -12 b 132 232 208 -12 132 51 l 132 357 l 8 357 l 8 494 l 132 494 l 132 569 l 8 569 l 8 750 l 132 750 l 132 953 l 446 953 l 446 750 l 639 750 l 639 569 "},"ť":{"ha":792,"x_min":0,"x_max":0,"o":"m 773 1062 b 514 815 773 889 702 815 l 514 909 b 635 1001 607 909 635 937 l 514 1001 l 514 1182 l 773 1182 m 538 233 b 639 236 564 233 601 233 l 639 0 b 455 -12 605 -4 524 -12 b 132 232 208 -12 132 51 l 132 569 l 8 569 l 8 750 l 132 750 l 132 953 l 446 953 l 446 750 l 639 750 l 639 569 l 446 569 l 446 291 b 538 233 446 245 479 233 "},"ţ":{"ha":715,"x_min":0,"x_max":0,"o":"m 457 -66 b 672 -203 604 -66 672 -103 b 385 -353 672 -314 589 -353 b 176 -328 320 -353 254 -350 l 176 -214 l 185 -214 b 374 -244 263 -238 299 -244 b 456 -204 424 -244 456 -235 b 374 -165 456 -173 424 -165 b 260 -176 346 -165 288 -169 l 251 -176 l 251 -106 l 334 -6 b 132 232 182 16 132 85 l 132 569 l 8 569 l 8 750 l 132 750 l 132 953 l 446 953 l 446 750 l 639 750 l 639 569 l 446 569 l 446 291 b 538 233 446 245 479 233 b 639 236 564 233 601 233 l 639 0 b 469 -12 607 -4 535 -11 l 422 -69 b 457 -66 429 -68 446 -66 "},"ț":{"ha":682,"x_min":0,"x_max":0,"o":"m 538 233 b 639 236 564 233 601 233 l 639 0 b 455 -12 605 -4 524 -12 b 132 232 208 -12 132 51 l 132 569 l 8 569 l 8 750 l 132 750 l 132 953 l 446 953 l 446 750 l 639 750 l 639 569 l 446 569 l 446 291 b 538 233 446 245 479 233 m 545 -214 b 226 -406 545 -349 524 -406 l 226 -326 b 367 -257 360 -326 367 -295 l 226 -257 l 226 -85 l 545 -85 "},"u":{"ha":1107,"x_min":0,"x_max":0,"o":"m 735 94 l 727 94 b 399 -19 638 16 536 -19 b 64 274 203 -19 64 72 l 64 750 l 377 750 l 377 369 b 534 225 377 268 438 225 b 729 413 624 225 729 264 l 729 750 l 1043 750 l 1043 0 l 735 0 "},"ú":{"ha":1107,"x_min":0,"x_max":0,"o":"m 682 834 l 414 834 l 525 1040 l 947 1040 m 735 94 l 727 94 b 399 -19 638 16 536 -19 b 64 274 203 -19 64 72 l 64 750 l 377 750 l 377 369 b 534 225 377 268 438 225 b 729 413 624 225 729 264 l 729 750 l 1043 750 l 1043 0 l 735 0 "},"ŭ":{"ha":1107,"x_min":0,"x_max":0,"o":"m 885 1042 b 552 816 880 886 708 816 b 221 1042 397 816 225 886 l 466 1042 b 552 984 471 999 503 984 b 639 1042 601 984 633 999 l 885 1042 m 735 94 l 727 94 b 399 -19 638 16 536 -19 b 64 274 203 -19 64 72 l 64 750 l 377 750 l 377 369 b 534 225 377 268 438 225 b 729 413 624 225 729 264 l 729 750 l 1043 750 l 1043 0 l 735 0 "},"û":{"ha":1107,"x_min":0,"x_max":0,"o":"m 557 933 l 549 933 l 471 834 l 153 834 l 335 1038 l 771 1038 l 954 834 l 635 834 m 735 94 l 727 94 b 399 -19 638 16 536 -19 b 64 274 203 -19 64 72 l 64 750 l 377 750 l 377 369 b 534 225 377 268 438 225 b 729 413 624 225 729 264 l 729 750 l 1043 750 l 1043 0 l 735 0 "},"ü":{"ha":1107,"x_min":0,"x_max":0,"o":"m 204 1011 l 492 1011 l 492 839 l 204 839 m 615 1011 l 903 1011 l 903 839 l 615 839 m 735 94 l 727 94 b 399 -19 638 16 536 -19 b 64 274 203 -19 64 72 l 64 750 l 377 750 l 377 369 b 534 225 377 268 438 225 b 729 413 624 225 729 264 l 729 750 l 1043 750 l 1043 0 l 735 0 "},"ù":{"ha":1107,"x_min":0,"x_max":0,"o":"m 581 1040 l 692 834 l 424 834 l 159 1040 m 735 94 l 727 94 b 399 -19 638 16 536 -19 b 64 274 203 -19 64 72 l 64 750 l 377 750 l 377 369 b 534 225 377 268 438 225 b 729 413 624 225 729 264 l 729 750 l 1043 750 l 1043 0 l 735 0 "},"ű":{"ha":1124,"x_min":0,"x_max":0,"o":"m 477 834 l 226 834 l 329 1040 l 658 1040 m 879 834 l 628 834 l 731 1040 l 1060 1040 m 735 94 l 727 94 b 399 -19 638 16 536 -19 b 64 274 203 -19 64 72 l 64 750 l 377 750 l 377 369 b 534 225 377 268 438 225 b 729 413 624 225 729 264 l 729 750 l 1043 750 l 1043 0 l 735 0 "},"ū":{"ha":1107,"x_min":0,"x_max":0,"o":"m 221 849 l 221 1019 l 886 1019 l 886 849 m 735 94 l 727 94 b 399 -19 638 16 536 -19 b 64 274 203 -19 64 72 l 64 750 l 377 750 l 377 369 b 534 225 377 268 438 225 b 729 413 624 225 729 264 l 729 750 l 1043 750 l 1043 0 l 735 0 "},"ų":{"ha":1107,"x_min":0,"x_max":0,"o":"m 1043 0 b 887 -131 945 -31 887 -88 b 961 -183 887 -169 922 -183 b 1043 -172 1000 -183 1024 -176 l 1043 -322 b 899 -335 1001 -332 960 -335 b 624 -180 711 -335 624 -276 b 797 0 624 -106 698 -36 l 735 0 l 735 94 l 727 94 b 399 -19 638 16 536 -19 b 64 274 203 -19 64 72 l 64 750 l 377 750 l 377 369 b 534 225 377 268 438 225 b 729 413 624 225 729 264 l 729 750 l 1043 750 l 1043 0 "},"ů":{"ha":1107,"x_min":0,"x_max":0,"o":"m 553 816 b 311 1007 419 816 311 888 b 553 1197 311 1125 419 1197 b 796 1007 688 1197 796 1125 b 553 816 796 888 688 816 m 553 941 b 632 1007 596 941 632 966 b 553 1073 632 1048 596 1073 b 475 1007 511 1073 475 1048 b 553 941 475 966 511 941 m 735 94 l 727 94 b 399 -19 638 16 536 -19 b 64 274 203 -19 64 72 l 64 750 l 377 750 l 377 369 b 534 225 377 268 438 225 b 729 413 624 225 729 264 l 729 750 l 1043 750 l 1043 0 l 735 0 "},"ũ":{"ha":1107,"x_min":0,"x_max":0,"o":"m 702 809 b 436 874 610 809 492 874 b 391 824 400 874 393 859 l 186 824 b 403 1058 186 987 305 1058 b 672 994 496 1058 616 994 b 717 1043 708 994 715 1008 l 922 1043 b 702 809 922 880 800 809 m 735 94 l 727 94 b 399 -19 638 16 536 -19 b 64 274 203 -19 64 72 l 64 750 l 377 750 l 377 369 b 534 225 377 268 438 225 b 729 413 624 225 729 264 l 729 750 l 1043 750 l 1043 0 l 735 0 "},"v":{"ha":1089,"x_min":0,"x_max":0,"o":"m 1089 750 l 711 0 l 377 0 l -1 750 l 355 750 l 540 315 l 548 315 l 733 750 "},"w":{"ha":1600,"x_min":0,"x_max":0,"o":"m 1290 0 l 947 0 l 808 428 l 800 428 l 661 0 l 315 0 l 6 750 l 355 750 l 499 326 l 507 326 l 645 750 l 959 750 l 1104 327 l 1112 327 l 1249 750 l 1595 750 "},"ẃ":{"ha":1600,"x_min":0,"x_max":0,"o":"m 931 834 l 663 834 l 774 1040 l 1196 1040 m 1290 0 l 947 0 l 808 428 l 800 428 l 661 0 l 315 0 l 6 750 l 355 750 l 499 326 l 507 326 l 645 750 l 959 750 l 1104 327 l 1112 327 l 1249 750 l 1595 750 "},"ŵ":{"ha":1600,"x_min":0,"x_max":0,"o":"m 806 933 l 798 933 l 720 834 l 402 834 l 584 1038 l 1020 1038 l 1202 834 l 884 834 m 1290 0 l 947 0 l 808 428 l 800 428 l 661 0 l 315 0 l 6 750 l 355 750 l 499 326 l 507 326 l 645 750 l 959 750 l 1104 327 l 1112 327 l 1249 750 l 1595 750 "},"ẅ":{"ha":1600,"x_min":0,"x_max":0,"o":"m 453 1011 l 741 1011 l 741 839 l 453 839 m 863 1011 l 1152 1011 l 1152 839 l 863 839 m 1290 0 l 947 0 l 808 428 l 800 428 l 661 0 l 315 0 l 6 750 l 355 750 l 499 326 l 507 326 l 645 750 l 959 750 l 1104 327 l 1112 327 l 1249 750 l 1595 750 "},"ẁ":{"ha":1600,"x_min":0,"x_max":0,"o":"m 830 1040 l 941 834 l 673 834 l 408 1040 m 1290 0 l 947 0 l 808 428 l 800 428 l 661 0 l 315 0 l 6 750 l 355 750 l 499 326 l 507 326 l 645 750 l 959 750 l 1104 327 l 1112 327 l 1249 750 l 1595 750 "},"x":{"ha":1114,"x_min":0,"x_max":0,"o":"m 1110 0 l 710 0 l 558 208 l 403 0 l 3 0 l 348 390 l 39 750 l 417 750 l 558 552 l 696 750 l 1074 750 l 765 390 "},"y":{"ha":1089,"x_min":0,"x_max":0,"o":"m 705 -13 b 282 -272 595 -233 526 -272 l 121 -272 l 121 -24 l 238 -24 b 352 18 316 -24 337 -14 l 363 41 l -1 750 l 355 750 l 540 315 l 548 315 l 733 750 l 1089 750 "},"ý":{"ha":1089,"x_min":0,"x_max":0,"o":"m 673 834 l 405 834 l 516 1040 l 938 1040 m 705 -13 b 282 -272 595 -233 526 -272 l 121 -272 l 121 -24 l 238 -24 b 352 18 316 -24 337 -14 l 363 41 l -1 750 l 355 750 l 540 315 l 548 315 l 733 750 l 1089 750 "},"ŷ":{"ha":1089,"x_min":0,"x_max":0,"o":"m 548 933 l 540 933 l 462 834 l 144 834 l 326 1038 l 762 1038 l 944 834 l 626 834 m 705 -13 b 282 -272 595 -233 526 -272 l 121 -272 l 121 -24 l 238 -24 b 352 18 316 -24 337 -14 l 363 41 l -1 750 l 355 750 l 540 315 l 548 315 l 733 750 l 1089 750 "},"ÿ":{"ha":1089,"x_min":0,"x_max":0,"o":"m 195 1011 l 483 1011 l 483 839 l 195 839 m 605 1011 l 894 1011 l 894 839 l 605 839 m 705 -13 b 282 -272 595 -233 526 -272 l 121 -272 l 121 -24 l 238 -24 b 352 18 316 -24 337 -14 l 363 41 l -1 750 l 355 750 l 540 315 l 548 315 l 733 750 l 1089 750 "},"ỳ":{"ha":1089,"x_min":0,"x_max":0,"o":"m 572 1040 l 683 834 l 415 834 l 150 1040 m 705 -13 b 282 -272 595 -233 526 -272 l 121 -272 l 121 -24 l 238 -24 b 352 18 316 -24 337 -14 l 363 41 l -1 750 l 355 750 l 540 315 l 548 315 l 733 750 l 1089 750 "},"z":{"ha":958,"x_min":0,"x_max":0,"o":"m 36 0 l 36 227 l 449 534 l 65 534 l 65 750 l 907 750 l 907 527 l 493 218 l 907 218 l 907 0 "},"ź":{"ha":958,"x_min":0,"x_max":0,"o":"m 615 834 l 347 834 l 458 1040 l 880 1040 m 36 0 l 36 227 l 449 534 l 65 534 l 65 750 l 907 750 l 907 527 l 493 218 l 907 218 l 907 0 "},"ž":{"ha":958,"x_min":0,"x_max":0,"o":"m 887 1038 l 705 834 l 269 834 l 86 1038 l 405 1038 l 482 940 l 491 940 l 569 1038 m 36 0 l 36 227 l 449 534 l 65 534 l 65 750 l 907 750 l 907 527 l 493 218 l 907 218 l 907 0 "},"ż":{"ha":958,"x_min":0,"x_max":0,"o":"m 327 1011 l 646 1011 l 646 839 l 327 839 m 36 0 l 36 227 l 449 534 l 65 534 l 65 750 l 907 750 l 907 527 l 493 218 l 907 218 l 907 0 "},"ﬁ":{"ha":1107,"x_min":0,"x_max":0,"o":"m 583 840 b 455 750 473 840 444 821 l 648 750 l 648 569 l 455 569 l 455 0 l 141 0 l 141 569 l 18 569 l 18 750 l 141 750 l 141 802 b 515 1046 141 995 277 1046 b 665 1037 601 1046 648 1037 l 665 836 b 583 840 647 838 626 840 m 727 1011 l 1046 1011 l 1046 839 l 727 839 m 730 750 l 1044 750 l 1044 0 l 730 0 "},"ﬂ":{"ha":1128,"x_min":0,"x_max":0,"o":"m 583 840 b 455 750 473 840 444 821 l 648 750 l 648 569 l 455 569 l 455 0 l 141 0 l 141 569 l 18 569 l 18 750 l 141 750 l 141 802 b 515 1046 141 995 277 1046 b 665 1037 601 1046 648 1037 l 665 836 b 583 840 647 838 626 840 m 751 1006 l 1064 1006 l 1064 0 l 751 0 "},"ª":{"ha":701,"x_min":0,"x_max":0,"o":"m 655 609 b 669 541 655 583 655 558 l 669 537 l 468 537 b 453 580 461 544 453 562 l 453 597 b 240 518 413 546 333 518 b 36 666 140 518 36 558 b 194 812 36 768 99 804 l 393 830 b 442 859 428 832 442 839 b 363 890 442 878 417 890 b 282 849 320 890 285 878 l 67 849 b 360 1004 74 971 204 1004 b 655 861 533 1004 655 978 l 655 609 m 451 745 b 407 732 441 738 422 735 l 300 716 b 248 669 268 710 248 698 b 312 629 248 640 274 629 b 451 730 375 629 451 658 m 679 159 l 679 0 l 27 0 l 27 159 "},"º":{"ha":706,"x_min":0,"x_max":0,"o":"m 352 1004 b 679 762 578 1004 679 913 b 352 518 679 606 578 518 b 27 762 127 518 27 606 b 352 1004 27 913 127 1004 m 352 656 b 467 762 433 656 467 697 b 352 865 467 824 433 865 b 238 762 272 865 238 824 b 352 656 238 697 272 656 m 679 159 l 679 0 l 27 0 l 27 159 "},"⁰":{"ha":819,"x_min":0,"x_max":0,"o":"m 409 1010 b 777 701 662 1010 777 901 b 409 395 777 504 662 395 b 43 701 156 395 43 504 b 409 1010 43 901 156 1010 m 409 542 b 565 701 523 542 565 601 b 409 862 565 804 523 862 b 253 701 295 862 253 804 b 409 542 253 601 295 542 "},"¹":{"ha":492,"x_min":0,"x_max":0,"o":"m 419 414 l 216 414 l 216 743 l 29 743 l 29 876 l 80 876 b 247 992 188 876 228 923 l 419 992 "},"²":{"ha":768,"x_min":0,"x_max":0,"o":"m 357 599 b 262 556 306 587 271 569 l 714 556 l 714 414 l 32 414 l 32 432 b 300 723 32 631 191 692 l 419 757 b 493 821 468 770 493 785 b 390 870 493 855 454 870 b 263 788 317 870 270 847 l 45 788 b 375 1010 55 946 162 1010 b 715 829 590 1010 715 971 b 523 636 715 709 645 663 l 357 599 "},"³":{"ha":756,"x_min":0,"x_max":0,"o":"m 605 713 b 718 581 681 702 718 661 b 365 395 718 449 631 395 b 21 602 111 395 29 456 l 237 602 b 365 536 242 555 284 536 b 495 590 442 536 495 546 b 394 648 495 633 459 648 l 275 648 l 275 772 l 397 772 b 491 824 455 772 491 785 b 365 877 491 863 440 877 b 247 811 291 877 250 855 l 44 811 b 365 1010 51 954 144 1010 b 702 837 599 1010 702 967 b 605 718 702 768 668 729 l 605 713 "},"*":{"ha":731,"x_min":0,"x_max":0,"o":"m 504 667 l 691 553 l 594 414 l 450 524 l 453 346 l 276 346 l 279 524 l 135 414 l 39 553 l 224 667 l 39 785 l 135 922 l 279 815 l 276 992 l 453 992 l 450 815 l 594 922 l 691 785 "},"\\":{"ha":729,"x_min":0,"x_max":0,"o":"m 703 0 l 463 0 l 27 992 l 267 992 "},"·":{"ha":465,"x_min":0,"x_max":0,"o":"m 233 242 b 39 436 125 242 39 328 b 233 630 39 543 125 630 b 427 436 341 630 427 543 b 233 242 427 328 341 242 "},"•":{"ha":614,"x_min":0,"x_max":0,"o":"m 307 232 b 43 496 161 232 43 350 b 307 760 43 642 161 760 b 570 496 452 760 570 642 b 307 232 570 350 452 232 "},":":{"ha":474,"x_min":0,"x_max":0,"o":"m 73 750 l 400 750 l 400 475 l 73 475 m 73 275 l 400 275 l 400 0 l 73 0 "},",":{"ha":489,"x_min":0,"x_max":0,"o":"m 416 74 b 73 -280 416 -185 306 -280 l 73 -166 b 216 0 179 -166 216 -85 l 73 0 l 73 291 l 416 291 "},"…":{"ha":1465,"x_min":0,"x_max":0,"o":"m 73 291 l 416 291 l 416 0 l 73 0 m 561 291 l 904 291 l 904 0 l 561 0 m 1050 291 l 1393 291 l 1393 0 l 1050 0 "},"!":{"ha":507,"x_min":0,"x_max":0,"o":"m 121 352 l 73 829 l 73 992 l 434 992 l 434 829 l 386 352 m 89 275 l 418 275 l 418 0 l 89 0 "},"¡":{"ha":507,"x_min":0,"x_max":0,"o":"m 418 750 l 418 475 l 89 475 l 89 750 m 434 -78 l 434 -241 l 73 -241 l 73 -78 l 121 399 l 386 399 "},"#":{"ha":1093,"x_min":0,"x_max":0,"o":"m 861 571 l 819 400 l 994 400 l 953 251 l 783 251 l 721 0 l 524 0 l 586 251 l 393 251 l 332 0 l 134 0 l 196 251 l 24 251 l 63 400 l 232 400 l 274 571 l 100 571 l 138 723 l 311 723 l 373 972 l 570 972 l 509 723 l 701 723 l 763 972 l 958 972 l 898 723 l 1069 723 l 1030 571 m 664 571 l 471 571 l 430 400 l 622 400 "},".":{"ha":489,"x_min":0,"x_max":0,"o":"m 73 291 l 416 291 l 416 0 l 73 0 "},"?":{"ha":1089,"x_min":0,"x_max":0,"o":"m 28 661 b 554 1014 35 941 243 1014 b 1061 732 870 1014 1061 941 b 882 501 1061 604 988 548 l 803 465 b 703 370 713 425 705 393 l 702 352 l 390 352 l 390 384 b 534 592 390 492 428 543 l 633 638 b 713 717 687 663 713 683 b 554 792 713 764 664 792 b 361 661 445 792 366 764 m 382 275 l 711 275 l 711 0 l 382 0 "},"¿":{"ha":1088,"x_min":0,"x_max":0,"o":"m 706 475 l 377 475 l 377 750 l 706 750 m 1060 89 b 533 -264 1052 -191 845 -264 b 27 18 217 -264 27 -191 b 206 250 27 147 100 202 l 285 285 b 384 381 374 326 382 358 l 385 399 l 697 399 l 697 366 b 553 159 697 258 659 207 l 454 113 b 375 33 400 88 375 67 b 533 -42 375 -14 423 -42 b 727 89 642 -42 722 -13 "},"\"":{"ha":724,"x_min":0,"x_max":0,"o":"m 48 508 l 48 992 l 292 992 l 292 508 m 431 508 l 431 992 l 676 992 l 676 508 "},"'":{"ha":340,"x_min":0,"x_max":0,"o":"m 48 508 l 48 992 l 292 992 l 292 508 "},";":{"ha":474,"x_min":0,"x_max":0,"o":"m 73 750 l 400 750 l 400 475 l 73 475 m 400 74 b 73 -280 400 -185 290 -280 l 73 -166 b 201 0 164 -166 201 -85 l 73 0 l 73 275 l 400 275 "},"/":{"ha":718,"x_min":0,"x_max":0,"o":"m 692 992 l 256 0 l 16 0 l 452 992 "},"_":{"ha":1036,"x_min":0,"x_max":0,"o":"m 1039 -229 l -3 -229 l -3 -146 l 1039 -146 "},"{":{"ha":671,"x_min":0,"x_max":0,"o":"m 475 572 b 326 399 475 469 421 415 l 326 390 b 475 215 421 373 475 318 l 475 35 b 558 -46 475 -9 478 -46 l 632 -46 l 632 -239 l 415 -239 b 176 -65 243 -239 176 -172 l 176 164 b 39 288 176 269 122 288 l 39 501 b 176 625 122 501 176 520 l 176 855 b 415 1028 176 960 243 1028 l 632 1028 l 632 835 l 558 835 b 475 754 478 835 475 797 l 475 572 "},"}":{"ha":664,"x_min":0,"x_max":0,"o":"m 195 754 b 112 835 195 797 192 835 l 38 835 l 38 1028 l 255 1028 b 494 855 427 1028 494 960 l 494 625 b 631 501 494 520 548 501 l 631 288 b 494 164 548 288 494 269 l 494 -65 b 255 -239 494 -172 427 -239 l 38 -239 l 38 -46 l 112 -46 b 195 35 192 -46 195 -9 l 195 215 b 344 390 195 318 249 373 l 344 399 b 195 572 249 415 195 469 "},"[":{"ha":624,"x_min":0,"x_max":0,"o":"m 378 -46 l 584 -46 l 584 -239 l 73 -239 l 73 1028 l 584 1028 l 584 835 l 378 835 "},"]":{"ha":631,"x_min":0,"x_max":0,"o":"m 47 835 l 47 1028 l 558 1028 l 558 -239 l 47 -239 l 47 -46 l 253 -46 l 253 835 "},"(":{"ha":615,"x_min":0,"x_max":0,"o":"m 357 394 b 588 -239 357 71 520 -174 l 311 -239 b 27 394 255 -175 27 0 b 311 1028 27 789 255 964 l 588 1028 b 357 394 520 963 357 718 "},")":{"ha":610,"x_min":0,"x_max":0,"o":"m 258 394 b 27 1028 258 718 95 963 l 304 1028 b 588 394 360 964 588 789 b 304 -239 588 0 360 -175 l 27 -239 b 258 394 95 -174 258 71 "},"—":{"ha":1307,"x_min":0,"x_max":0,"o":"m 39 306 l 39 501 l 1269 501 l 1269 306 "},"–":{"ha":982,"x_min":0,"x_max":0,"o":"m 40 306 l 40 501 l 940 501 l 940 306 "},"-":{"ha":610,"x_min":0,"x_max":0,"o":"m 40 289 l 40 514 l 569 514 l 569 289 "},"«":{"ha":749,"x_min":0,"x_max":0,"o":"m 340 731 l 340 486 l 182 382 l 182 375 l 340 270 l 340 26 l 55 221 l 55 535 m 695 731 l 695 486 l 538 382 l 538 375 l 695 270 l 695 26 l 409 221 l 409 535 "},"»":{"ha":738,"x_min":0,"x_max":0,"o":"m 340 221 l 53 26 l 53 270 l 211 375 l 211 382 l 53 486 l 53 731 l 340 535 m 694 221 l 409 26 l 409 270 l 566 375 l 566 382 l 409 486 l 409 731 l 694 535 "},"‹":{"ha":393,"x_min":0,"x_max":0,"o":"m 340 731 l 340 486 l 182 382 l 182 375 l 340 270 l 340 26 l 55 221 l 55 535 "},"›":{"ha":382,"x_min":0,"x_max":0,"o":"m 339 221 l 53 26 l 53 270 l 211 375 l 211 382 l 53 486 l 53 731 l 339 535 "},"„":{"ha":844,"x_min":0,"x_max":0,"o":"m 360 69 b 48 -264 360 -175 256 -264 l 48 -157 b 172 0 136 -157 172 -81 l 48 0 l 48 270 l 360 270 m 797 69 b 485 -264 797 -175 694 -264 l 485 -157 b 609 0 573 -157 609 -81 l 485 0 l 485 270 l 797 270 "},"“":{"ha":844,"x_min":0,"x_max":0,"o":"m 48 658 b 360 992 48 902 151 992 l 360 884 b 236 727 271 884 236 808 l 360 727 l 360 458 l 48 458 m 485 658 b 797 992 485 902 588 992 l 797 884 b 673 727 708 884 673 808 l 797 727 l 797 458 l 485 458 "},"”":{"ha":844,"x_min":0,"x_max":0,"o":"m 360 791 b 48 458 360 547 256 458 l 48 565 b 172 722 136 565 172 641 l 48 722 l 48 992 l 360 992 m 797 791 b 485 458 797 547 694 458 l 485 565 b 609 722 573 565 609 641 l 485 722 l 485 992 l 797 992 "},"‘":{"ha":407,"x_min":0,"x_max":0,"o":"m 48 658 b 360 992 48 902 151 992 l 360 884 b 236 727 271 884 236 808 l 360 727 l 360 458 l 48 458 "},"’":{"ha":407,"x_min":0,"x_max":0,"o":"m 360 791 b 48 458 360 547 256 458 l 48 565 b 172 722 136 565 172 641 l 48 722 l 48 992 l 360 992 "},"‚":{"ha":407,"x_min":0,"x_max":0,"o":"m 360 69 b 48 -264 360 -175 256 -264 l 48 -157 b 172 0 136 -157 172 -81 l 48 0 l 48 270 l 360 270 "}," ":{"ha":421,"x_min":0,"x_max":0,"o":""}," ":{"ha":367,"x_min":0,"x_max":0,"o":""}," ":{"ha":475,"x_min":0,"x_max":0,"o":""}," ":{"ha":188,"x_min":0,"x_max":0,"o":""},"​":{"ha":0,"x_min":0,"x_max":0,"o":""},"\r":{"ha":188,"x_min":0,"x_max":0,"o":""},"¢":{"ha":1125,"x_min":0,"x_max":0,"o":"m 1088 297 b 597 -30 1069 112 944 -21 l 597 -182 l 512 -182 l 512 -30 b 37 375 192 -18 37 130 b 512 781 37 620 192 768 l 512 911 l 597 911 l 597 781 b 1086 458 944 771 1065 638 l 742 458 b 597 558 735 498 702 547 l 597 193 b 743 297 702 203 737 254 l 1088 297 m 364 375 b 512 194 364 276 413 208 l 512 557 b 364 375 413 542 364 475 "},"¤":{"ha":918,"x_min":0,"x_max":0,"o":"m 845 511 b 781 306 845 435 822 365 l 866 222 l 751 120 l 669 199 b 458 139 608 161 535 139 b 249 198 381 139 309 161 l 168 120 l 52 222 l 136 305 b 70 511 95 364 70 434 b 136 718 70 588 95 658 l 52 800 l 168 903 l 249 824 b 458 883 309 861 381 883 b 669 823 535 883 608 861 l 751 903 l 866 800 l 781 716 b 845 511 822 657 845 587 m 458 320 b 645 511 560 320 645 405 b 458 702 645 617 560 702 b 271 511 356 702 271 617 b 458 320 271 405 356 320 "},"$":{"ha":1182,"x_min":0,"x_max":0,"o":"m 1145 303 b 620 -15 1145 52 945 -10 l 620 -162 l 535 -162 l 535 -15 b 20 329 226 -10 30 58 l 367 329 b 535 199 378 234 439 205 l 535 381 l 364 403 b 42 683 163 429 43 501 b 535 987 42 913 249 982 l 535 1102 l 620 1102 l 620 987 b 1112 675 900 980 1104 911 l 766 675 b 620 778 757 740 705 770 l 620 617 l 827 593 b 1145 303 1032 570 1145 485 m 535 627 l 535 780 b 391 702 431 775 391 744 b 498 631 391 657 427 639 m 620 198 b 785 282 734 202 785 230 b 658 365 785 337 735 356 l 620 370 l 620 198 "},"€":{"ha":1181,"x_min":0,"x_max":0,"o":"m 528 347 b 768 233 570 273 652 233 b 1066 313 880 233 980 261 l 1066 32 b 768 -15 983 -6 860 -15 b 177 347 449 -15 234 99 l 31 347 l 106 450 l 163 450 b 162 486 162 462 162 474 b 163 524 162 499 162 511 l 31 524 l 103 626 l 177 626 b 766 988 234 873 449 988 b 1143 889 916 988 1069 947 l 983 681 b 766 739 930 716 856 739 b 528 626 652 739 570 700 l 945 626 l 869 524 l 496 524 b 495 486 495 512 495 499 b 496 450 495 474 495 462 l 816 450 l 742 347 l 528 347 "},"ƒ":{"ha":857,"x_min":0,"x_max":0,"o":"m 769 840 b 639 765 709 840 652 837 l 613 629 l 782 629 l 782 434 l 575 434 l 531 213 b 117 -31 490 3 348 -31 b 13 -26 71 -31 37 -28 l 13 179 b 88 175 31 178 47 175 b 219 250 149 175 205 179 l 255 434 l 118 434 l 118 629 l 293 629 l 327 802 b 740 1046 367 1012 510 1046 b 845 1041 787 1046 821 1043 l 845 836 b 769 840 827 838 811 840 "},"₣":{"ha":1372,"x_min":0,"x_max":0,"o":"m 83 972 l 1065 972 l 1065 728 l 399 728 l 399 602 l 1077 602 b 1336 378 1256 602 1336 516 b 1226 214 1336 281 1291 238 l 1226 206 l 1350 0 l 1065 0 l 970 156 l 816 156 l 816 0 l 551 0 l 551 376 l 399 376 l 399 0 l 83 0 m 816 314 l 984 314 b 1040 360 1021 314 1040 332 b 984 409 1040 390 1020 409 l 816 409 "},"£":{"ha":1131,"x_min":0,"x_max":0,"o":"m 812 228 b 1067 298 911 228 987 240 l 1067 20 b 860 -19 1027 -7 934 -19 b 533 79 730 -19 624 27 b 274 -19 479 15 384 -19 b 39 175 138 -19 39 38 b 229 362 39 316 141 362 b 334 338 268 362 301 352 b 294 407 327 361 312 384 l 72 407 l 72 524 l 206 524 b 128 703 162 575 128 634 b 576 990 128 929 314 990 b 1077 651 839 990 1045 929 l 763 651 b 590 773 750 745 675 773 b 448 681 508 773 448 747 b 528 524 448 624 488 576 l 776 524 l 776 407 l 609 407 b 642 313 630 378 642 347 b 632 254 642 290 639 271 b 812 228 694 239 751 228 m 259 116 b 339 196 293 116 329 137 b 261 229 310 215 283 229 b 197 170 223 229 197 206 b 259 116 197 136 225 116 "},"¥":{"ha":1210,"x_min":0,"x_max":0,"o":"m 942 577 l 1064 577 l 1064 461 l 860 461 l 806 384 l 1064 384 l 1064 268 l 763 268 l 763 0 l 447 0 l 447 268 l 123 268 l 123 384 l 404 384 l 349 461 l 123 461 l 123 577 l 267 577 l -13 972 l 358 972 l 605 592 l 852 972 l 1223 972 "},"∙":{"ha":501,"x_min":0,"x_max":0,"o":"m 250 278 b 84 445 159 278 84 353 b 250 611 84 536 159 611 b 416 445 342 611 416 536 b 250 278 416 353 342 278 "},"+":{"ha":903,"x_min":0,"x_max":0,"o":"m 818 354 l 556 354 l 556 85 l 347 85 l 347 354 l 84 354 l 84 552 l 347 552 l 347 818 l 556 818 l 556 552 l 818 552 "},"−":{"ha":903,"x_min":0,"x_max":0,"o":"m 818 355 l 84 355 l 84 551 l 818 551 "},"×":{"ha":879,"x_min":0,"x_max":0,"o":"m 577 453 l 794 235 l 656 97 l 439 314 l 223 97 l 84 235 l 301 453 l 84 670 l 223 809 l 439 591 l 656 809 l 794 670 "},"÷":{"ha":903,"x_min":0,"x_max":0,"o":"m 451 634 b 319 766 379 634 319 694 b 451 898 319 839 379 898 b 583 766 524 898 583 839 b 451 634 583 694 524 634 m 818 355 l 84 355 l 84 551 l 818 551 m 451 7 b 319 139 379 7 319 67 b 451 272 319 212 379 272 b 583 139 524 272 583 212 b 451 7 583 67 524 7 "},"=":{"ha":903,"x_min":0,"x_max":0,"o":"m 818 508 l 84 508 l 84 704 l 818 704 m 818 199 l 84 199 l 84 395 l 818 395 "},"≠":{"ha":903,"x_min":0,"x_max":0,"o":"m 586 508 l 512 395 l 818 395 l 818 199 l 386 199 l 307 77 l 112 77 l 191 199 l 84 199 l 84 395 l 316 395 l 390 508 l 84 508 l 84 704 l 516 704 l 595 826 l 791 826 l 711 704 l 818 704 l 818 508 "},">":{"ha":903,"x_min":0,"x_max":0,"o":"m 818 366 l 84 72 l 84 278 l 511 443 l 511 451 l 84 617 l 84 822 l 818 528 "},"<":{"ha":900,"x_min":0,"x_max":0,"o":"m 815 822 l 815 617 l 390 451 l 390 443 l 815 278 l 815 72 l 84 366 l 84 528 "},"≥":{"ha":903,"x_min":0,"x_max":0,"o":"m 817 436 l 86 211 l 86 388 l 498 513 l 498 521 l 86 645 l 86 823 l 817 598 m 818 167 l 818 0 l 84 0 l 84 167 "},"≤":{"ha":903,"x_min":0,"x_max":0,"o":"m 817 823 l 817 645 l 404 521 l 404 513 l 817 388 l 817 211 l 86 436 l 86 598 m 818 0 l 84 0 l 84 167 l 818 167 "},"±":{"ha":901,"x_min":0,"x_max":0,"o":"m 818 431 l 555 431 l 555 225 l 347 225 l 347 431 l 84 431 l 84 612 l 347 612 l 347 818 l 555 818 l 555 612 l 818 612 m 818 167 l 818 0 l 84 0 l 84 167 "},"≈":{"ha":903,"x_min":0,"x_max":0,"o":"m 644 621 b 818 740 694 621 745 660 l 818 536 b 644 440 776 489 719 440 b 493 483 576 440 526 466 l 393 533 b 258 575 362 548 316 575 b 84 457 208 575 157 535 l 84 661 b 258 756 126 707 182 756 b 410 713 326 756 376 730 l 510 663 b 644 621 540 648 586 621 m 644 327 b 818 445 694 327 745 365 l 818 241 b 644 145 776 194 719 145 b 493 188 576 145 526 172 l 393 238 b 258 280 362 254 316 280 b 84 162 208 280 157 241 l 84 366 b 258 462 126 412 182 462 b 410 418 326 462 376 435 l 510 368 b 644 327 540 353 586 327 "},"~":{"ha":903,"x_min":0,"x_max":0,"o":"m 644 486 b 818 604 694 486 745 524 l 818 400 b 644 304 776 353 719 304 b 493 347 576 304 526 330 l 393 397 b 258 439 362 412 316 439 b 84 321 208 439 157 400 l 84 525 b 258 620 126 571 182 620 b 410 577 326 620 376 594 l 510 527 b 644 486 540 512 586 486 "},"¬":{"ha":901,"x_min":0,"x_max":0,"o":"m 818 214 l 611 214 l 611 416 l 84 416 l 84 612 l 818 612 "},"∅":{"ha":1181,"x_min":0,"x_max":0,"o":"m 939 864 b 1097 496 1036 771 1097 640 b 590 -11 1097 215 871 -11 b 332 60 496 -11 408 14 l 279 -11 l 138 -11 l 242 128 b 83 496 144 219 83 350 b 590 1003 83 776 310 1003 b 850 932 685 1003 774 976 l 903 1003 l 1044 1003 l 939 864 m 213 496 b 317 225 213 392 251 296 l 778 836 b 590 888 722 869 658 888 b 213 496 381 888 213 713 m 590 104 b 968 496 800 104 968 279 b 865 765 968 600 929 694 l 404 154 b 590 104 458 122 522 104 "},"∞":{"ha":1181,"x_min":0,"x_max":0,"o":"m 833 692 b 1095 426 994 692 1095 556 b 833 155 1095 286 994 155 b 580 286 719 155 637 219 b 341 155 520 219 441 155 b 84 426 183 155 84 286 b 341 692 84 556 183 692 b 593 562 457 692 537 628 b 833 692 652 628 727 692 m 344 298 b 499 408 413 298 453 338 b 344 551 445 503 408 551 b 239 426 272 551 239 494 b 344 298 239 356 275 298 m 830 298 b 938 426 901 298 938 356 b 830 551 938 494 905 551 b 675 440 761 551 719 510 b 830 298 726 347 765 298 "},"∫":{"ha":764,"x_min":0,"x_max":0,"o":"m 591 1046 b 737 1037 676 1046 721 1037 l 737 836 b 661 840 720 838 702 840 b 539 751 556 840 539 821 l 539 -13 b 172 -257 539 -206 403 -257 b 27 -248 88 -257 43 -248 l 27 -47 b 103 -51 44 -49 62 -51 b 225 38 208 -51 225 -32 l 225 802 b 591 1046 225 995 361 1046 "},"Ω":{"ha":1432,"x_min":0,"x_max":0,"o":"m 49 184 l 355 184 l 355 193 b 63 550 191 218 63 327 b 716 1024 63 858 315 1024 b 1368 550 1116 1024 1368 858 b 1077 193 1368 327 1240 218 l 1077 184 l 1382 184 l 1382 0 l 785 0 l 785 252 b 1017 515 916 272 1017 372 b 716 761 1017 668 905 761 b 414 515 526 761 414 668 b 646 252 414 372 516 272 l 646 0 l 49 0 "},"∆":{"ha":1378,"x_min":0,"x_max":0,"o":"m 1372 0 l 6 0 l 469 992 l 908 992 m 940 221 l 693 777 l 684 777 l 435 221 "},"∏":{"ha":1293,"x_min":0,"x_max":0,"o":"m 901 -206 l 901 721 l 393 721 l 393 -206 l 73 -206 l 73 992 l 1220 992 l 1220 -206 "},"∑":{"ha":1146,"x_min":0,"x_max":0,"o":"m 1093 -206 l 73 -206 l 73 23 l 471 394 l 96 765 l 96 992 l 1068 992 l 1068 727 l 561 727 l 877 413 l 498 59 l 1093 59 "},"√":{"ha":972,"x_min":0,"x_max":0,"o":"m 569 -206 l 360 -206 l 187 261 l 81 216 l 39 300 l 308 411 l 476 -39 l 479 -39 l 793 972 l 934 972 "},"∂":{"ha":1142,"x_min":0,"x_max":0,"o":"m 522 1039 b 1092 501 778 1039 1092 959 b 540 -32 1092 104 883 -32 b 49 305 287 -32 49 67 b 514 666 49 594 302 666 b 742 620 588 666 674 656 b 491 808 709 777 605 808 b 198 731 386 808 282 778 l 108 943 b 522 1039 210 1002 355 1039 m 538 187 b 749 401 682 187 734 259 b 585 447 708 434 648 447 b 376 308 476 447 376 409 b 538 187 376 226 447 187 "},"%":{"ha":1608,"x_min":0,"x_max":0,"o":"m 359 992 b 679 707 578 992 679 905 b 359 422 679 509 578 422 b 39 707 140 422 39 509 b 359 992 39 905 140 992 m 1210 972 l 577 0 l 398 0 l 1032 972 m 359 574 b 463 707 420 574 463 602 b 359 840 463 811 420 840 b 256 707 298 840 256 811 b 359 574 256 602 298 574 m 1249 550 b 1569 265 1468 550 1569 463 b 1249 -19 1569 68 1468 -19 b 929 265 1030 -19 929 68 b 1249 550 929 463 1030 550 m 1249 132 b 1352 265 1310 132 1352 161 b 1249 398 1352 370 1310 398 b 1146 265 1188 398 1146 370 b 1249 132 1146 161 1188 132 "},"‰":{"ha":2318,"x_min":0,"x_max":0,"o":"m 359 992 b 679 707 578 992 679 905 b 359 422 679 509 578 422 b 39 707 140 422 39 509 b 359 992 39 905 140 992 m 1210 972 l 577 0 l 398 0 l 1032 972 m 359 574 b 463 707 420 574 463 602 b 359 840 463 811 420 840 b 256 707 298 840 256 811 b 359 574 256 602 298 574 m 1249 550 b 1569 265 1468 550 1569 463 b 1249 -19 1569 68 1468 -19 b 929 265 1030 -19 929 68 b 1249 550 929 463 1030 550 m 1959 550 b 2279 265 2178 550 2279 463 b 1959 -19 2279 68 2178 -19 b 1639 265 1740 -19 1639 68 b 1959 550 1639 463 1740 550 m 1249 132 b 1352 265 1310 132 1352 161 b 1249 398 1352 370 1310 398 b 1146 265 1188 398 1146 370 b 1249 132 1146 161 1188 132 m 1959 132 b 2062 265 2020 132 2062 161 b 1959 398 2062 370 2020 398 b 1856 265 1898 398 1856 370 b 1959 132 1856 161 1898 132 "},"◊":{"ha":1065,"x_min":0,"x_max":0,"o":"m 993 497 l 621 -42 l 445 -42 l 73 497 l 445 1036 l 621 1036 m 797 497 l 534 898 l 270 497 l 534 98 "},"@":{"ha":1464,"x_min":0,"x_max":0,"o":"m 1065 683 l 979 252 b 1014 206 974 221 980 206 b 1237 491 1118 206 1237 267 b 745 893 1237 736 1042 893 b 226 347 454 893 226 660 b 717 -122 226 64 406 -122 b 1077 -18 858 -122 965 -91 l 1290 -18 b 711 -274 1190 -157 980 -274 b 43 354 300 -274 43 -18 b 750 1046 43 752 356 1046 b 1422 519 1135 1046 1422 816 b 985 67 1422 196 1194 67 b 815 146 892 67 830 93 l 807 146 b 606 67 749 83 680 67 b 368 314 462 67 368 160 b 481 610 368 420 408 537 b 694 698 536 665 599 700 b 853 611 774 697 831 666 l 861 611 l 875 683 m 732 558 b 620 498 686 558 649 536 b 562 321 580 445 562 379 b 664 207 562 244 601 207 b 776 267 710 207 747 229 b 834 444 816 320 834 386 b 732 558 834 522 795 558 "},"&":{"ha":1383,"x_min":0,"x_max":0,"o":"m 999 0 l 931 56 b 577 -20 824 6 701 -20 b 43 282 245 -20 43 59 b 270 538 43 425 118 484 l 324 557 l 315 565 b 187 772 225 639 187 679 b 630 1014 187 937 333 1014 b 1077 772 930 1014 1077 937 b 902 576 1077 661 1006 618 l 761 518 l 921 386 b 954 525 942 431 954 479 l 1245 525 b 1134 210 1245 399 1203 294 l 1388 0 m 597 654 l 656 675 b 754 760 719 698 754 719 b 630 836 754 800 725 836 b 508 759 538 836 508 800 b 586 663 508 730 536 705 m 577 178 b 742 212 639 178 694 191 l 500 412 b 388 290 426 381 388 343 b 577 178 388 227 450 178 "},"¶":{"ha":1026,"x_min":0,"x_max":0,"o":"m 953 -256 l 750 -256 l 750 823 l 626 823 l 626 -256 l 424 -256 l 424 376 l 403 376 b 39 683 158 376 39 488 b 406 990 39 879 160 990 l 953 990 "},"§":{"ha":1225,"x_min":0,"x_max":0,"o":"m 1214 339 b 1081 133 1214 235 1160 172 b 1113 13 1103 100 1113 59 b 603 -285 1113 -234 908 -285 b 108 36 307 -285 117 -229 l 411 36 b 617 -87 415 -69 501 -87 b 793 -9 732 -87 793 -67 b 711 60 793 39 748 52 l 267 160 b 11 413 77 203 11 267 b 168 626 11 527 80 590 b 144 730 153 649 144 691 b 603 1014 144 960 344 1014 b 1068 722 856 1014 1059 956 l 764 722 b 591 823 758 799 682 823 b 455 749 501 823 455 797 b 518 694 455 711 486 700 l 949 600 b 1214 339 1130 561 1214 497 m 850 271 b 905 255 869 267 888 262 b 923 302 918 268 923 283 b 797 392 923 360 864 377 l 398 482 b 324 502 372 488 347 496 b 292 448 303 490 292 470 b 397 370 292 399 335 384 "},"©":{"ha":1156,"x_min":0,"x_max":0,"o":"m 578 -22 b 43 496 282 -22 43 210 b 578 1014 43 782 282 1014 b 1113 496 873 1014 1113 782 b 578 -22 1113 210 873 -22 m 578 67 b 1020 496 822 67 1020 259 b 578 924 1020 733 822 924 b 136 496 333 924 136 733 b 578 67 136 259 333 67 m 855 421 b 579 198 848 303 758 198 b 291 497 411 198 291 298 b 579 793 291 693 411 793 b 848 595 755 793 840 696 l 708 595 b 579 683 699 651 658 683 b 431 497 496 683 431 631 b 579 309 431 360 496 309 b 715 421 666 309 708 351 l 855 421 "},"®":{"ha":1156,"x_min":0,"x_max":0,"o":"m 578 1014 b 1113 496 873 1014 1113 782 b 578 -22 1113 210 873 -22 b 43 496 282 -22 43 210 b 578 1014 43 782 282 1014 m 578 67 b 1020 496 821 67 1020 260 b 578 924 1020 731 821 924 b 136 496 335 924 136 731 b 578 67 136 260 335 67 m 835 598 b 715 427 835 511 794 451 l 851 211 l 695 211 l 573 414 l 465 414 l 465 211 l 330 211 l 330 781 l 621 781 b 835 598 758 781 835 710 m 465 515 l 596 515 b 696 598 662 515 696 547 b 596 679 696 647 662 679 l 465 679 "},"™":{"ha":1410,"x_min":0,"x_max":0,"o":"m 590 856 l 395 856 l 395 494 l 235 494 l 235 856 l 39 856 l 39 992 l 590 992 m 1371 494 l 1210 494 l 1210 833 l 1202 833 l 1079 494 l 951 494 l 826 838 l 817 838 l 817 494 l 665 494 l 665 992 l 918 992 l 1011 705 l 1020 705 l 1111 992 l 1371 992 "},"°":{"ha":490,"x_min":0,"x_max":0,"o":"m 245 557 b 27 773 123 557 27 644 b 245 989 27 902 123 989 b 464 773 368 989 464 902 b 245 557 464 644 368 557 m 245 660 b 353 773 313 660 353 708 b 245 886 353 838 313 886 b 138 773 178 886 138 838 b 245 660 138 708 178 660 "},"|":{"ha":446,"x_min":0,"x_max":0,"o":"m 373 -314 l 73 -314 l 73 1108 l 373 1108 "},"¦":{"ha":446,"x_min":0,"x_max":0,"o":"m 373 501 l 73 501 l 73 1108 l 373 1108 m 373 -314 l 73 -314 l 73 292 l 373 292 "},"†":{"ha":988,"x_min":0,"x_max":0,"o":"m 950 456 l 643 456 l 643 -249 l 346 -249 l 346 456 l 39 456 l 39 700 l 346 700 l 346 992 l 643 992 l 643 700 l 950 700 "},"‡":{"ha":988,"x_min":0,"x_max":0,"o":"m 643 474 l 643 269 l 950 269 l 950 43 l 643 43 l 643 -249 l 346 -249 l 346 43 l 39 43 l 39 269 l 346 269 l 346 474 l 39 474 l 39 700 l 346 700 l 346 992 l 643 992 l 643 700 l 950 700 l 950 474 "},"№":{"ha":2083,"x_min":0,"x_max":0,"o":"m 1683 1004 b 2010 762 1908 1004 2010 913 b 1683 518 2010 606 1908 518 b 1357 762 1457 518 1357 606 b 1683 1004 1357 913 1457 1004 m 1220 992 l 1220 0 l 853 0 l 385 610 l 377 610 l 377 0 l 73 0 l 73 992 l 450 992 l 907 394 l 916 394 l 916 992 m 1683 656 b 1798 762 1764 656 1798 697 b 1683 865 1798 824 1764 865 b 1568 762 1603 865 1568 824 b 1683 656 1568 697 1603 656 m 2010 159 l 2010 0 l 1357 0 l 1357 159 "},"^":{"ha":846,"x_min":0,"x_max":0,"o":"m 808 490 l 588 490 l 428 788 l 420 788 l 260 490 l 39 490 l 314 972 l 533 972 "},"̦":{"ha":0,"x_min":0,"x_max":0,"o":"m -73 -214 b -392 -406 -73 -349 -95 -406 l -392 -326 b -252 -257 -258 -326 -252 -295 l -392 -257 l -392 -85 l -73 -85 "},"ʼ":{"ha":458,"x_min":0,"x_max":0,"o":"m 385 827 b 73 523 385 605 291 523 l 73 621 b 214 764 182 621 214 690 l 73 764 l 73 1006 l 385 1006 "},"´":{"ha":679,"x_min":0,"x_max":0,"o":"m 341 834 l 73 834 l 184 1040 l 606 1040 "},"˘":{"ha":810,"x_min":0,"x_max":0,"o":"m 737 1042 b 404 816 732 886 560 816 b 73 1042 249 816 77 886 l 318 1042 b 404 984 324 999 356 984 b 491 1042 453 984 485 999 l 737 1042 "},"ˇ":{"ha":947,"x_min":0,"x_max":0,"o":"m 874 1038 l 691 834 l 255 834 l 73 1038 l 391 1038 l 469 940 l 477 940 l 555 1038 "},"¸":{"ha":642,"x_min":0,"x_max":0,"o":"m 73 -214 l 81 -214 b 270 -244 160 -238 195 -244 b 352 -204 321 -244 352 -235 b 270 -165 352 -173 321 -165 b 156 -176 243 -165 184 -169 l 148 -176 l 148 -106 l 263 35 l 403 35 l 319 -69 b 353 -66 326 -68 343 -66 b 568 -203 501 -66 568 -103 b 282 -353 568 -314 485 -353 b 73 -328 216 -353 151 -350 "},"ˆ":{"ha":947,"x_min":0,"x_max":0,"o":"m 477 933 l 469 933 l 391 834 l 73 834 l 255 1038 l 691 1038 l 874 834 l 555 834 "},"¨":{"ha":844,"x_min":0,"x_max":0,"o":"m 73 1011 l 361 1011 l 361 839 l 73 839 m 484 1011 l 772 1011 l 772 839 l 484 839 "},"˙":{"ha":465,"x_min":0,"x_max":0,"o":"m 73 1011 l 392 1011 l 392 839 l 73 839 "},"`":{"ha":679,"x_min":0,"x_max":0,"o":"m 495 1040 l 606 834 l 338 834 l 73 1040 "},"˝":{"ha":981,"x_min":0,"x_max":0,"o":"m 324 834 l 73 834 l 176 1040 l 505 1040 m 726 834 l 475 834 l 578 1040 l 907 1040 "},"¯":{"ha":811,"x_min":0,"x_max":0,"o":"m 73 849 l 73 1019 l 738 1019 l 738 849 "},"˛":{"ha":565,"x_min":0,"x_max":0,"o":"m 410 -183 b 492 -172 449 -183 473 -176 l 492 -322 b 348 -335 451 -332 409 -335 b 73 -180 160 -335 73 -276 b 347 24 73 -82 203 8 l 492 0 b 336 -131 394 -31 336 -88 b 410 -183 336 -169 371 -183 "},"˚":{"ha":631,"x_min":0,"x_max":0,"o":"m 315 816 b 73 1007 181 816 73 888 b 315 1197 73 1125 181 1197 b 558 1007 450 1197 558 1125 b 315 816 558 888 450 816 m 315 941 b 394 1007 358 941 394 966 b 315 1073 394 1048 358 1073 b 237 1007 273 1073 237 1048 b 315 941 237 966 273 941 "},"˜":{"ha":882,"x_min":0,"x_max":0,"o":"m 589 809 b 323 874 497 809 379 874 b 277 824 287 874 280 859 l 73 824 b 290 1058 73 987 192 1058 b 558 994 383 1058 503 994 b 604 1043 595 994 602 1008 l 808 1043 b 589 809 808 880 686 809 "}}}
